<?xml version="1.0" encoding="utf-8"?>
<!-- Generator: Adobe Illustrator 22.0.1, SVG Export Plug-In . SVG Version: 6.00 Build 0)  -->
<svg version="1.1" id="interface" xmlns="http://www.w3.org/2000/svg" xmlns:xlink="http://www.w3.org/1999/xlink" x="0px" y="0px"
	 viewBox="0 0 1024 768" style="enable-background:new 0 0 1024 768;" xml:space="preserve">
<style type="text/css">
	.st0{fill:#FFFFFF;}
	.st1{fill:#DC5F11;}
</style>
<g id="oddset-logo">
	<g>
		<g>
			<g>
				<path class="st0" d="M219.5,46.3l-1-1.6H218v1.6h-0.9V42h1.5c1,0,1.6,0.4,1.6,1.3c0,0.5-0.3,0.9-0.8,1.2l0,0l1.2,1.7L219.5,46.3
					L219.5,46.3z M218.5,42.6H218V44h0.5c0.5,0,0.8-0.2,0.8-0.7S219,42.6,218.5,42.6z"/>
			</g>
			<g>
				<path class="st0" d="M214,44.3c0,2.5,2,4.6,4.6,4.6c2.5,0,4.6-2,4.6-4.6c0-2.5-2-4.6-4.6-4.6C216,39.8,214,41.8,214,44.3z
					 M214.9,44.3c0-2,1.6-3.7,3.7-3.7c2,0,3.7,1.6,3.7,3.7c0,2-1.6,3.7-3.7,3.7S214.9,46.4,214.9,44.3z"/>
			</g>
		</g>
		<path class="st1" d="M168.3,38.9l-3.9-4.4l0.4-0.6l3.1-3.5c0.5-0.6,0.9-1.5,0.9-2.2c0-1.6-1.6-3-3.2-3c-1,0-1.6,0.4-2.3,1.2
			l-2.2,3l-0.5,0.6l-0.5-0.6l-2.2-3c-0.6-0.8-1.3-1.2-2.3-1.2c-1.6,0-3.2,1.4-3.2,3c0,0.8,0.4,1.6,0.9,2.2l3.1,3.5l0.4,0.6l-3.9,4.4
			c-0.5,0.5-0.9,1.4-0.9,2.1c0,1.8,1.2,3,3.1,3c1.4,0,1.9-0.6,2.6-1.4l2.8-3.5l2.8,3.5c0.7,0.8,1.2,1.4,2.6,1.4c1.8,0,3.1-1.2,3.1-3
			C169.2,40.4,168.8,39.5,168.3,38.9z"/>
		<g>
			<path class="st0" d="M170.7,68.8c-2,0-5.3-0.1-5.9-0.2c-0.6-0.2-0.9-0.3-1.1-0.6c-0.2-0.4-0.2-0.9-0.2-1.5c0-0.1,0-0.2,0-0.3
				v-0.1v-0.3l0,0c0-0.1,0-0.3,0.2-1.2l0.2-1.2l0.8-4c0.4-2.1,0.6-2.6,0.8-3.2c0.3-0.8,0.5-1.4,1-1.9s0.9-0.7,1.5-0.8
				c0.7-0.2,4-0.2,6-0.2c2.1,0,5.3,0.1,6,0.2c0.6,0.2,0.9,0.4,1.1,0.7c0.3,0.5,0.3,1.2,0.1,2.1c-0.2,1-0.5,1.6-1.1,2.2
				c-0.5,0.5-0.9,0.6-1.5,0.8c-0.7,0.2-4.6,0.2-6.1,0.2h-0.9c-1.3,0-2.6,1.3-2.9,3.1l-0.3,1.5h3.5c1.5,0,5.9-0.1,7.5-0.2
				c1.7-0.1,3.2-0.4,4.9-2.1c1.6-1.7,2.1-3.1,2.6-5.3l0.1-0.3l0,0c0.3-2.1,0.3-3.5-0.7-5.3c-1.1-1.9-2.6-2.3-4.1-2.4
				c-1.5-0.1-5.9-0.2-7.4-0.2s-5.8,0.1-7.4,0.2l0,0c-1.9,0.1-3.3,0.8-4.7,2.3s-2.2,3.1-2.8,5.5l-0.3,1.2c-0.3,1.1-0.4,1.7-0.7,3.2
				c-0.3,1.6-0.4,2.2-0.5,3.2l-0.2,1.2c-0.4,2.5-0.2,4.1,0.7,5.7s2.1,2.3,4,2.4c1.5,0.1,14.2,0.1,15.7,0.1c2.5,0,3.1-3.2,3.4-4.8
				h-11.3V68.8z"/>
			<path class="st0" d="M137.9,48.8L137.9,48.8c-5.1,0.2-6.4,5.3-6.6,6.3c-0.4,1.9-0.3,3.4,0.3,4.6c0.6,1.3,1.7,2.1,3.3,2.4
				c1.3,0.3,4.8,0.6,7.8,0.9h0.1c2.1,0.2,4.4,0.4,4.9,0.5c0.7,0.2,1.1,0.4,1.2,0.7c0.1,0.2,0.1,0.6,0,1.1c-0.4,1.8-1.3,2.8-2.8,2.9
				c-2.2,0.2-5.2,0.2-6.1,0.2c-0.7,0-5.8-0.1-7.6-0.3c-0.7,0-1.3,0.2-1.9,0.8c-0.6,0.6-1,1.5-1.2,2.6l-0.3,1.4l1,0.1
				c1.8,0.2,8.1,0.5,9.2,0.5c1.6,0,2.7,0,4.4,0l3.1-0.1c4-0.1,6.3-3.4,7.1-6.4l0.3-1.4l0,0c0.1-0.4,0.2-1,0.2-1.7c0-0.9,0-2-0.5-3
				c-0.7-1.4-2-2.2-3.9-2.4c-3.5-0.4-11.5-1.2-12.4-1.4c-0.6-0.1-1.1-0.3-1.2-0.7c-0.1-0.2-0.1-0.3-0.1-0.5c0-0.1,0-0.2,0-0.2
				c0.2-1.2,0.6-1.9,2.1-2c1.6-0.1,5.3-0.2,7-0.2h2.8h4c1.4,0,2.6-1.3,3-3.2l0.3-1.4l-1.1-0.1c-1.5-0.1-6.1-0.2-8.2-0.2
				C144.1,48.6,141.9,48.7,137.9,48.8z"/>
			<path class="st0" d="M97.6,41.1h-0.2c-2.9,0-4.9,1.9-5.6,5.3L89,60.9c-0.3,1.3-0.8,4-1.2,5.1c-0.3,0.9-0.5,1.4-1,1.9
				s-0.8,0.6-1.5,0.8c-0.8,0.2-4.2,0.2-5.4,0.2c-1.7,0-4.7-0.1-5.3-0.2c-0.6-0.2-0.9-0.3-1.1-0.6c-0.2-0.4-0.2-0.7-0.2-1.6
				c0.1-1.1,0.6-4.1,0.8-5c0.2-1,0.8-4,1.2-5.1c0.3-0.9,0.5-1.4,1-1.9s0.9-0.7,1.5-0.8c0.7-0.1,3.3-0.2,5.4-0.2h0.1h0.4
				c0.6,0,1.2-0.3,1.7-0.8c0.6-0.6,1-1.5,1.2-2.4l0.3-1.4l-1.6-0.1c-0.4,0-0.6-0.1-1.4-0.1c-1.5,0-5.3,0.1-6.8,0.2
				c-1.9,0.1-3.3,0.8-4.7,2.3c-1.4,1.5-2.2,3.1-2.8,5.5l-0.3,1.2c-0.3,1-0.4,1.6-0.7,3.2c-0.3,1.5-0.4,2.1-0.5,3.2l-0.2,1.2
				c-0.4,2.5-0.2,4.1,0.7,5.7c0.9,1.6,2.1,2.3,4,2.4c1.5,0.1,5.2,0.2,6.7,0.2s5.3-0.1,6.8-0.2c1.9-0.1,3.3-0.8,4.7-2.3
				c1.4-1.5,2.2-3.1,2.8-5.5l0.3-1.2c0.3-1,0.4-1.7,0.7-3.2l3.9-20.2h-0.9V41.1z"/>
			<path class="st0" d="M128.4,41.1h-0.2c-2.9,0-4.9,1.9-5.6,5.3l-2.8,14.4c-0.3,1.3-0.8,4-1.2,5.1c-0.3,0.9-0.5,1.4-1,1.9
				s-0.8,0.6-1.5,0.8c-0.8,0.2-4.2,0.2-5.4,0.2c-1.7,0-4.7-0.1-5.3-0.2c-0.6-0.2-0.9-0.3-1.1-0.6c-0.2-0.4-0.2-0.7-0.2-1.6
				c0.1-1.1,0.6-4.1,0.8-5c0.2-1,0.8-4,1.1-5.1c0.3-0.9,0.5-1.4,1-1.9s0.9-0.7,1.5-0.8c0.7-0.1,3.3-0.2,5.4-0.2h0.1h0.4
				c0.6,0,1.2-0.3,1.7-0.8c0.6-0.6,1-1.5,1.2-2.4l0.3-1.4l-1.6-0.1c-0.4,0-0.6-0.1-1.4-0.1c-1.5,0-5.3,0.1-6.8,0.2
				c-1.9,0.1-3.3,0.8-4.7,2.3c-1.4,1.5-2.2,3.1-2.8,5.5l-0.3,1.2c-0.2,1-0.4,1.6-0.7,3.2c-0.3,1.5-0.4,2.1-0.5,3.2l-0.2,1.2
				c-0.4,2.5-0.2,4.1,0.7,5.7c0.9,1.6,2.1,2.3,4,2.4c1.5,0.1,5.2,0.2,6.7,0.2s5.3-0.1,6.8-0.2c1.9-0.1,3.3-0.8,4.7-2.3
				c1.4-1.5,2.2-3.1,2.8-5.5l0.3-1.2c0.3-1,0.4-1.7,0.7-3.2l3.9-20.2H128.4z"/>
			<path class="st0" d="M40.5,68.5c-0.6-0.2-0.9-0.3-1.1-0.6c-0.2-0.4-0.3-0.7-0.2-1.6c0.1-1,1-6.2,1.5-8.4c0.3-1.5,1.6-8,1.9-9.1
				c0.2-0.8,0.5-1.3,1-1.9c0.5-0.5,0.8-0.6,1.5-0.8c0.8-0.2,5.8-0.2,7-0.2c1.8,0,6.2,0.1,6.9,0.2c0.6,0.1,0.9,0.3,1.1,0.6
				c0.2,0.4,0.2,0.8,0.2,1.6c-0.1,1-1.1,6.7-1.6,9.1c-0.3,1.4-1.5,7.3-1.8,8.4c-0.3,0.9-0.5,1.4-1,1.9s-0.9,0.6-1.5,0.8
				c-0.8,0.2-5.8,0.2-7,0.2C45.7,68.8,41.2,68.7,40.5,68.5z M44.4,41.3L44.4,41.3L44.4,41.3z M44.4,41.3c-1.9,0.1-3.3,0.8-4.7,2.3
				s-2.2,3.1-2.8,5.5l-0.3,1.2c-0.3,1-1.2,5.8-1.5,7.2s-1,5.5-1.2,6.6l-0.2,1.2c-0.4,2.5-0.2,4.1,0.7,5.7s2.1,2.3,4,2.4
				c1.5,0.1,6.7,0.2,8.3,0.2c1.5,0,6.8-0.1,8.3-0.2c1.9-0.1,3.3-0.8,4.7-2.3s2.2-3.1,2.8-5.5l0.3-1.2c0.2-1,1.1-5.1,1.3-6.6
				c0.3-1.5,1.2-6.2,1.3-7.2l0.2-1.2c0.4-2.5,0.2-4.1-0.7-5.7c-0.9-1.6-2.1-2.3-4-2.4c-1.4-0.1-6.7-0.2-8.3-0.2
				C51.2,41.1,45.9,41.2,44.4,41.3z"/>
			<path class="st0" d="M199.8,41.1h-0.6H199c-1.4,0-2.9,0.7-4,1.9c-0.7,0.8-1.2,1.7-1.6,2.6c-0.1,0.3-0.2,0.7-0.3,1l-0.5,2.5
				l-2.1,10.7c-0.4,2.1-0.6,3.4-0.9,5.3c-0.4,2.5-0.2,4.1,0.7,5.7s2,2.3,4,2.5c1.5,0.1,6.7,0.2,8.1,0.2h1.5c1.4,0,2.6-1.5,3-3.4
				l0.1-0.3l0.2-1.2h-4c-2.2,0-6,0-6.7-0.1c-0.6-0.1-0.9-0.3-1.1-0.6c-0.2-0.3-0.2-0.7-0.2-1.4c0-0.1,0-0.1,0-0.2
				c0.1-1.1,0.7-4.8,1-6l1.3-6.9h9.9l0.9-4.7h-9.9L199.8,41.1z"/>
		</g>
	</g>
	<g>
		<path class="st0" d="M31.8,92.6c-0.1-0.1-0.1-0.2-0.1-0.3l2-9.5c0-0.1,0.1-0.2,0.2-0.3c0.1-0.1,0.2-0.1,0.3-0.1H41
			c0.1,0,0.2,0,0.2,0.1c0.1,0.1,0.1,0.2,0.1,0.3L41,84.3c0,0.1-0.1,0.2-0.2,0.3c-0.1,0.1-0.2,0.1-0.3,0.1H36l-0.4,2h4.2
			c0.1,0,0.2,0,0.2,0.1c0,0.2,0,0.2,0,0.3l-0.3,1.5c0,0.1-0.1,0.2-0.2,0.3C39.4,89,39.3,89,39.2,89H35l-0.7,3.2
			c0,0.1-0.1,0.2-0.2,0.3c-0.1,0.1-0.2,0.1-0.3,0.1H32C31.9,92.7,31.8,92.6,31.8,92.6z"/>
		<path class="st0" d="M40.5,92.5c-0.1-0.1-0.1-0.2-0.1-0.3l1.4-6.8c0-0.1,0.1-0.2,0.2-0.3c0.1-0.1,0.2-0.1,0.3-0.1h1.8
			c0.1,0,0.2,0,0.2,0.1c0.1,0.1,0.1,0.2,0.1,0.3L44.3,86c0.3-0.3,0.6-0.5,0.9-0.7c0.3-0.2,0.8-0.2,1.3-0.2h0.8c0.1,0,0.2,0,0.2,0.1
			c0.1,0.1,0.1,0.2,0.1,0.3L47.3,87c0,0.1-0.1,0.2-0.1,0.3c-0.1,0.1-0.2,0.1-0.3,0.1h-1.5c-0.4,0-0.7,0.1-1,0.3
			c-0.3,0.2-0.4,0.5-0.5,0.9l-0.8,3.7c0,0.1-0.1,0.2-0.2,0.3c-0.1,0.1-0.2,0.1-0.3,0.1h-1.9C40.7,92.7,40.6,92.6,40.5,92.5z"/>
		<path class="st0" d="M48.5,92.1c-0.5-0.5-0.8-1.1-0.8-2c0-0.3,0-0.7,0.1-1l0.1-0.5c0.3-1.2,0.8-2.1,1.7-2.7c0.8-0.7,1.8-1,3-1
			c1,0,1.8,0.3,2.3,0.8s0.8,1.2,0.8,2.1c0,0.3,0,0.7-0.1,1l-0.1,0.4c0,0.1-0.1,0.2-0.2,0.3c-0.1,0.1-0.2,0.1-0.3,0.1h-4.6v0.1
			c0,0.2,0,0.3,0,0.5c0,0.3,0.1,0.5,0.2,0.7c0.1,0.2,0.4,0.3,0.7,0.3c0.2,0,0.4,0,0.6-0.1c0.2-0.1,0.3-0.2,0.5-0.4
			c0.1-0.1,0.2-0.2,0.3-0.2s0.1,0,0.3,0h1.9c0.1,0,0.2,0,0.2,0.1s0.1,0.1,0,0.2c-0.1,0.3-0.3,0.6-0.6,0.9c-0.4,0.3-0.8,0.6-1.4,0.9
			c-0.6,0.2-1.3,0.4-2,0.4C49.8,92.8,49.1,92.6,48.5,92.1z M53,88.1L53,88.1c0.1-0.2,0.1-0.3,0.1-0.5c0-0.3-0.1-0.6-0.2-0.7
			c-0.2-0.2-0.4-0.3-0.7-0.3c-0.4,0-0.7,0.1-0.9,0.4c-0.3,0.3-0.4,0.6-0.5,1.1l0,0H53z"/>
		<path class="st0" d="M57.2,92.1c-0.5-0.5-0.8-1.1-0.8-2c0-0.3,0-0.7,0.1-1l0.1-0.5c0.3-1.2,0.8-2.1,1.7-2.7c0.8-0.7,1.8-1,3-1
			c1,0,1.8,0.3,2.3,0.8s0.8,1.2,0.8,2.1c0,0.3,0,0.7-0.1,1l-0.1,0.4c0,0.1-0.1,0.2-0.2,0.3c-0.1,0.1-0.2,0.1-0.3,0.1H59v0.1
			c0,0.2,0,0.3,0,0.5c0,0.3,0.1,0.5,0.2,0.7c0.1,0.2,0.4,0.3,0.7,0.3c0.2,0,0.4,0,0.6-0.1c0.2-0.1,0.3-0.2,0.5-0.4
			c0.1-0.1,0.2-0.2,0.3-0.2s0.1,0,0.3,0h1.9c0.1,0,0.2,0,0.2,0.1s0.1,0.1,0,0.2c-0.1,0.3-0.3,0.6-0.6,0.9c-0.4,0.3-0.8,0.6-1.4,0.9
			c-0.6,0.2-1.3,0.4-2,0.4C58.5,92.8,57.7,92.6,57.2,92.1z M61.7,88.1L61.7,88.1c0.1-0.2,0.1-0.3,0.1-0.5c0-0.3-0.1-0.6-0.2-0.7
			c-0.2-0.2-0.4-0.3-0.7-0.3c-0.4,0-0.7,0.1-0.9,0.4c-0.3,0.3-0.4,0.6-0.5,1.1l0,0H61.7z"/>
		<path class="st0" d="M67.8,92.5c-0.1-0.1-0.1-0.2-0.1-0.3l2-9.5c0-0.1,0.1-0.2,0.2-0.3c0.1-0.1,0.2-0.1,0.3-0.1h2.1
			c0.1,0,0.2,0,0.2,0.1c0.1,0.1,0.1,0.2,0.1,0.3l-2,9.5c0,0.1-0.1,0.2-0.2,0.3c-0.1,0.1-0.2,0.1-0.3,0.1H68
			C68,92.7,67.9,92.6,67.8,92.5z"/>
		<path class="st0" d="M72.5,92.5c-0.1-0.1-0.1-0.2-0.1-0.3l1.4-6.9c0-0.1,0.1-0.2,0.2-0.3c0.1-0.1,0.2-0.1,0.3-0.1h1.8
			c0.1,0,0.2,0,0.2,0.1c0.1,0.1,0.1,0.2,0.1,0.3L76.3,86c0.7-0.7,1.6-1.1,2.5-1.1c0.8,0,1.4,0.2,1.8,0.6s0.6,1,0.6,1.7
			c0,0.3,0,0.6-0.1,1l-0.9,4.1c0,0.1-0.1,0.2-0.2,0.3c-0.1,0.1-0.2,0.1-0.3,0.1h-1.9c-0.1,0-0.2,0-0.2-0.1s-0.1-0.2-0.1-0.3l0.8-4
			c0-0.2,0.1-0.4,0.1-0.5c0-0.3-0.1-0.5-0.2-0.6C78.1,87,77.9,87,77.6,87c-0.4,0-0.8,0.1-1,0.4s-0.5,0.6-0.6,1l-0.8,4
			c0,0.1-0.1,0.2-0.2,0.3c-0.1,0.1-0.2,0.1-0.3,0.1h-1.9C72.6,92.7,72.6,92.6,72.5,92.5z"/>
		<path class="st0" d="M83,90.6c0-0.3,0-0.6,0.1-0.9l0.6-2.7h-1.1c-0.1,0-0.2,0-0.2-0.1c-0.1-0.1-0.1-0.2,0-0.3l0.2-1.3
			c0-0.1,0.1-0.2,0.2-0.3c0.1-0.1,0.2-0.1,0.3-0.1h1.2l0.5-2.4c0-0.1,0.1-0.2,0.2-0.3c0.1-0.1,0.2-0.1,0.3-0.1h1.8
			c0.1,0,0.2,0,0.2,0.1c0.1,0.1,0.1,0.2,0.1,0.3l-0.5,2.4h1.8c0.1,0,0.2,0,0.2,0.1c0.1,0.1,0.1,0.2,0.1,0.3l-0.3,1.3
			c0,0.1-0.1,0.2-0.2,0.3C88.4,87,88.3,87,88.2,87h-1.8l-0.5,2.5c0,0.2-0.1,0.3-0.1,0.5s0,0.3,0.1,0.4s0.2,0.1,0.5,0.1h1.2
			c0.1,0,0.2,0,0.2,0.1c0.1,0.1,0.1,0.2,0.1,0.3l-0.3,1.3c0,0.1-0.1,0.2-0.2,0.3c-0.1,0.1-0.2,0.1-0.3,0.1h-1.2
			C84,92.7,83,92,83,90.6z"/>
		<path class="st0" d="M89.9,92.1c-0.5-0.5-0.8-1.1-0.8-2c0-0.3,0-0.7,0.1-1l0.1-0.5c0.3-1.2,0.8-2.1,1.7-2.7c0.8-0.7,1.8-1,3-1
			c1,0,1.8,0.3,2.3,0.8s0.8,1.2,0.8,2.1c0,0.3,0,0.7-0.1,1l-0.1,0.4c0,0.1-0.1,0.2-0.2,0.3c-0.1,0.1-0.2,0.1-0.3,0.1h-4.6v0.1
			c0,0.2,0,0.3,0,0.5c0,0.3,0.1,0.5,0.2,0.7s0.4,0.3,0.7,0.3c0.2,0,0.4,0,0.6-0.1s0.3-0.2,0.5-0.4c0.1-0.1,0.2-0.2,0.3-0.2
			s0.1,0,0.3,0h1.9c0.1,0,0.2,0,0.2,0.1s0.1,0.1,0,0.2c-0.1,0.3-0.3,0.6-0.6,0.9c-0.4,0.3-0.8,0.6-1.4,0.9c-0.6,0.2-1.3,0.4-2,0.4
			C91.3,92.8,90.5,92.6,89.9,92.1z M94.4,88.1L94.4,88.1c0.1-0.2,0.1-0.3,0.1-0.5c0-0.3-0.1-0.6-0.2-0.7c-0.2-0.2-0.4-0.3-0.7-0.3
			c-0.4,0-0.7,0.1-0.9,0.4c-0.3,0.3-0.4,0.6-0.5,1.1l0,0H94.4z"/>
		<path class="st0" d="M97.4,92.5c-0.1-0.1-0.1-0.2-0.1-0.3l1.4-6.8c0-0.1,0.1-0.2,0.2-0.3C99,85,99.1,85,99.2,85h1.8
			c0.1,0,0.2,0,0.2,0.1c0.1,0.1,0.1,0.2,0.1,0.3l-0.1,0.6c0.3-0.3,0.6-0.5,0.9-0.7s0.8-0.2,1.3-0.2h0.8c0.1,0,0.2,0,0.2,0.1
			c0.1,0.1,0.1,0.2,0.1,0.3l-0.3,1.6c0,0.1-0.1,0.2-0.1,0.3c-0.1,0.1-0.2,0.1-0.3,0.1h-1.5c-0.4,0-0.7,0.1-1,0.3
			c-0.3,0.2-0.4,0.5-0.5,0.9l-0.8,3.7c0,0.1-0.1,0.2-0.2,0.3c-0.1,0.1-0.2,0.1-0.3,0.1h-1.9C97.5,92.7,97.4,92.6,97.4,92.5z"/>
		<path class="st0" d="M104.9,92.1c-0.4-0.4-0.7-1.1-0.7-1.9c0-0.3,0-0.6,0.1-0.9l0.2-1c0.3-1.1,0.7-1.9,1.4-2.5
			c0.6-0.6,1.4-0.9,2.4-0.9c0.5,0,1,0.1,1.3,0.2s0.6,0.4,0.8,0.6l0.1-0.4c0-0.1,0.1-0.2,0.2-0.3c0.1-0.1,0.2-0.1,0.3-0.1h1.7
			c0.1,0,0.2,0,0.2,0.1c0.1,0.1,0.1,0.2,0.1,0.3l-1.5,6.9c0,0.1-0.1,0.2-0.2,0.3c-0.1,0.1-0.2,0.1-0.3,0.1h-1.7
			c-0.1,0-0.2,0-0.2-0.1c-0.1-0.1-0.1-0.2-0.1-0.3l0.1-0.5c-0.3,0.3-0.7,0.6-1,0.7s-0.8,0.2-1.3,0.2C106,92.8,105.4,92.6,104.9,92.1
			z M109,90.4c0.3-0.3,0.5-0.6,0.6-1s0.2-0.8,0.2-1.1c0-0.2,0-0.3,0-0.3c0-0.3-0.1-0.5-0.2-0.7c-0.2-0.2-0.4-0.3-0.7-0.3
			c-0.4,0-0.7,0.1-1,0.4c-0.2,0.3-0.4,0.6-0.6,1.1c-0.1,0.3-0.2,0.6-0.2,0.9c0,0.2,0,0.3,0,0.5c0,0.3,0.1,0.5,0.2,0.7
			s0.4,0.2,0.7,0.2C108.3,90.8,108.7,90.6,109,90.4z"/>
		<path class="st0" d="M115,92.5c-0.5-0.2-0.9-0.5-1.2-0.9s-0.4-0.9-0.4-1.5c0-0.2,0-0.4,0-0.6l0.2-1.2c0.3-1.1,0.8-1.9,1.6-2.5
			c0.8-0.6,1.7-0.9,2.8-0.9c0.8,0,1.4,0.1,1.9,0.4s0.9,0.6,1.1,1s0.4,0.8,0.4,1.1v0.2c0,0.1-0.1,0.2-0.1,0.3
			c-0.1,0.1-0.2,0.1-0.3,0.1h-2c-0.2,0-0.3-0.1-0.3-0.3c0-0.3-0.1-0.5-0.2-0.6s-0.4-0.2-0.6-0.2c-0.8,0-1.3,0.5-1.5,1.5
			c-0.1,0.5-0.2,0.9-0.2,1c0,0.3-0.1,0.5-0.1,0.5c0,0.3,0.1,0.6,0.2,0.7c0.1,0.2,0.4,0.2,0.7,0.2c0.3,0,0.5-0.1,0.7-0.2
			s0.4-0.3,0.5-0.6c0.1-0.1,0.1-0.2,0.2-0.2s0.2-0.1,0.3-0.1h2c0.1,0,0.2,0,0.2,0.1c0.1,0.1,0.1,0.2,0,0.3c-0.1,0.3-0.3,0.7-0.6,1.1
			c-0.3,0.4-0.8,0.8-1.4,1.1c-0.6,0.3-1.4,0.5-2.3,0.5C116.1,92.8,115.5,92.7,115,92.5z"/>
		<path class="st0" d="M123.1,90.6c0-0.3,0-0.6,0.1-0.9l0.6-2.7h-1.1c-0.1,0-0.2,0-0.2-0.1c-0.1-0.1-0.1-0.2,0-0.3l0.2-1.3
			c0-0.1,0.1-0.2,0.2-0.3c0.1-0.1,0.2-0.1,0.3-0.1h1.2l0.5-2.4c0-0.1,0.1-0.2,0.2-0.3c0.1-0.1,0.2-0.1,0.3-0.1h1.8
			c0.1,0,0.2,0,0.2,0.1c0.1,0.1,0.1,0.2,0.1,0.3l-0.5,2.4h1.8c0.1,0,0.2,0,0.2,0.1c0.1,0.1,0.1,0.2,0.1,0.3l-0.3,1.3
			c0,0.1-0.1,0.2-0.2,0.3c-0.1,0.1-0.2,0.1-0.3,0.1h-1.8l-0.5,2.5c0,0.2-0.1,0.3-0.1,0.5s0,0.3,0.1,0.4s0.2,0.1,0.5,0.1h1.2
			c0.1,0,0.2,0,0.2,0.1c0.1,0.1,0.1,0.2,0.1,0.3l-0.3,1.3c0,0.1-0.1,0.2-0.2,0.3c-0.1,0.1-0.2,0.1-0.3,0.1H126
			C124,92.7,123.1,92,123.1,90.6z"/>
		<path class="st0" d="M128.7,92.5c-0.1-0.1-0.1-0.2-0.1-0.3l1.4-6.9c0-0.1,0.1-0.2,0.2-0.3c0.1-0.1,0.2-0.1,0.3-0.1h1.8
			c0.1,0,0.2,0,0.2,0.1c0.1,0.1,0.1,0.2,0.1,0.3l-1.5,6.9c0,0.1-0.1,0.2-0.2,0.3c-0.1,0.1-0.2,0.1-0.3,0.1H129
			C128.9,92.7,128.8,92.6,128.7,92.5z M130.6,83.9c-0.1-0.1-0.1-0.2-0.1-0.3l0.3-1.4c0-0.1,0.1-0.2,0.2-0.3c0.1-0.1,0.2-0.1,0.3-0.1
			h1.8c0.1,0,0.2,0,0.2,0.1c0.1,0.1,0.1,0.2,0.1,0.3l-0.3,1.4c0,0.1-0.1,0.2-0.1,0.3s-0.2,0.1-0.3,0.1h-1.8
			C130.7,84,130.6,84,130.6,83.9z"/>
		<path class="st0" d="M135.2,92.6c-0.1-0.1-0.1-0.2-0.1-0.3l-1.3-6.8c0-0.1,0-0.2,0.1-0.3c0.1-0.1,0.2-0.1,0.3-0.1h1.6
			c0.1,0,0.2,0,0.3,0.1s0.1,0.1,0.1,0.2l0.7,4.3l2.5-4.4c0.1-0.2,0.3-0.3,0.5-0.3h1.9c0.1,0,0.2,0,0.2,0.1c0,0,0.1,0.1,0.1,0.2
			s0,0.1-0.1,0.2l-4.2,6.8c-0.1,0.1-0.2,0.2-0.2,0.3s-0.2,0.1-0.3,0.1h-1.7C135.4,92.7,135.3,92.6,135.2,92.6z"/>
		<path class="st0" d="M142.7,92.1c-0.5-0.5-0.8-1.1-0.8-2c0-0.3,0-0.7,0.1-1l0.1-0.5c0.3-1.2,0.8-2.1,1.7-2.7c0.8-0.7,1.8-1,3-1
			c1,0,1.8,0.3,2.3,0.8s0.8,1.2,0.8,2.1c0,0.3,0,0.7-0.1,1l-0.1,0.4c0,0.1-0.1,0.2-0.2,0.3c-0.1,0.1-0.2,0.1-0.3,0.1h-4.6v0.1
			c0,0.2,0,0.3,0,0.5c0,0.3,0.1,0.5,0.2,0.7c0.1,0.2,0.4,0.3,0.7,0.3c0.2,0,0.4,0,0.6-0.1c0.2-0.1,0.3-0.2,0.5-0.4
			c0.1-0.1,0.2-0.2,0.3-0.2s0.1,0,0.3,0h1.9c0.1,0,0.2,0,0.2,0.1s0.1,0.1,0,0.2c-0.1,0.3-0.3,0.6-0.6,0.9c-0.4,0.3-0.8,0.6-1.4,0.9
			c-0.6,0.2-1.3,0.4-2,0.4C144,92.8,143.2,92.6,142.7,92.1z M147.2,88.1L147.2,88.1c0.1-0.2,0.1-0.3,0.1-0.5c0-0.3-0.1-0.6-0.2-0.7
			c-0.2-0.2-0.4-0.3-0.7-0.3c-0.4,0-0.7,0.1-0.9,0.4c-0.3,0.3-0.4,0.6-0.5,1.1l0,0H147.2z"/>
		<path class="st0" d="M154.8,92c-0.7-0.5-1-1.3-1-2.3c0-0.3,0-0.6,0.1-0.9c0.1-0.8,0.3-1.7,0.6-2.7c0.3-1.2,0.9-2.2,1.9-2.8
			c1-0.7,2.1-1,3.5-1c0.9,0,1.6,0.1,2.2,0.4s1.1,0.6,1.3,1c0.3,0.4,0.4,0.8,0.4,1.3c0,0.2,0,0.3,0,0.4s-0.1,0.2-0.1,0.2
			c-0.1,0.1-0.2,0.1-0.2,0.1h-2.3c-0.1,0-0.2,0-0.2-0.1c0,0-0.1-0.1-0.1-0.2c-0.1-0.3-0.2-0.5-0.4-0.7s-0.6-0.3-1-0.3
			c-1.1,0-1.8,0.6-2.1,1.7c-0.2,0.7-0.4,1.6-0.5,2.5c0,0.3-0.1,0.4-0.1,0.5c0,0.9,0.5,1.3,1.5,1.3c0.6,0,1-0.1,1.4-0.4
			s0.6-0.7,0.8-1.3l0.1-0.3h-1.3c-0.1,0-0.2,0-0.2-0.1c-0.1-0.1-0.1-0.2,0-0.3l0.2-1.1c0-0.1,0.1-0.2,0.2-0.3
			c0.1-0.1,0.2-0.1,0.3-0.1h3.7c0.1,0,0.2,0,0.2,0.1c0.1,0.1,0.1,0.2,0.1,0.3l-0.4,1.7c-0.2,0.8-0.5,1.5-1,2.1s-1.1,1.1-1.9,1.4
			c-0.8,0.3-1.6,0.5-2.6,0.5C156.4,92.8,155.5,92.5,154.8,92z"/>
		<path class="st0" d="M164.6,92.1c-0.4-0.4-0.7-1.1-0.7-1.9c0-0.3,0-0.6,0.1-0.9l0.2-1c0.3-1.1,0.7-1.9,1.4-2.5
			c0.6-0.6,1.4-0.9,2.4-0.9c0.5,0,1,0.1,1.3,0.2s0.6,0.4,0.8,0.6l0.1-0.4c0-0.1,0.1-0.2,0.2-0.3c0.1-0.1,0.2-0.1,0.3-0.1h1.7
			c0.1,0,0.2,0,0.2,0.1c0.1,0.1,0.1,0.2,0.1,0.3l-1.5,6.9c0,0.1-0.1,0.2-0.2,0.3c-0.1,0.1-0.2,0.1-0.3,0.1H169c-0.1,0-0.2,0-0.2-0.1
			c-0.1-0.1-0.1-0.2-0.1-0.3l0.1-0.5c-0.3,0.3-0.7,0.6-1,0.7s-0.8,0.2-1.3,0.2C165.7,92.8,165.1,92.6,164.6,92.1z M168.6,90.4
			c0.3-0.3,0.5-0.6,0.6-1s0.2-0.8,0.2-1.1c0-0.2,0-0.3,0-0.3c0-0.3-0.1-0.5-0.2-0.7c-0.2-0.2-0.4-0.3-0.7-0.3c-0.4,0-0.7,0.1-1,0.4
			c-0.2,0.3-0.4,0.6-0.6,1.1c-0.1,0.3-0.2,0.6-0.2,0.9c0,0.2,0,0.3,0,0.5c0,0.3,0.1,0.5,0.2,0.7c0.1,0.2,0.4,0.2,0.7,0.2
			C168,90.8,168.4,90.6,168.6,90.4z"/>
		<path class="st0" d="M172.9,92.5c-0.1-0.1-0.1-0.2-0.1-0.3l1.4-6.9c0-0.1,0.1-0.2,0.2-0.3c0.1-0.1,0.2-0.1,0.3-0.1h1.7
			c0.1,0,0.2,0,0.2,0.1c0.1,0.1,0.1,0.2,0.1,0.3l-0.1,0.5c0.3-0.3,0.6-0.6,1-0.7c0.3-0.2,0.7-0.3,1.2-0.3c0.6,0,1,0.1,1.4,0.3
			c0.3,0.2,0.6,0.5,0.7,0.9c0.3-0.4,0.7-0.7,1.1-0.9s0.8-0.3,1.3-0.3c0.7,0,1.2,0.2,1.7,0.6s0.6,0.9,0.6,1.7c0,0.3,0,0.6-0.1,1
			l-0.9,4.1c0,0.1-0.1,0.2-0.2,0.3c-0.1,0.1-0.2,0.1-0.3,0.1h-1.8c-0.1,0-0.2,0-0.2-0.1c-0.1-0.1-0.1-0.2-0.1-0.3l0.9-4
			c0-0.2,0.1-0.3,0.1-0.5c0-0.5-0.3-0.8-0.8-0.8c-0.3,0-0.6,0.1-0.8,0.3c-0.3,0.2-0.4,0.5-0.5,1l-0.9,4c0,0.1-0.1,0.2-0.2,0.3
			c-0.1,0.1-0.2,0.1-0.3,0.1h-1.8c-0.1,0-0.2,0-0.2-0.1c-0.1-0.1-0.1-0.2-0.1-0.3l0.9-4c0-0.2,0.1-0.3,0.1-0.5
			c0-0.5-0.3-0.8-0.8-0.8c-0.3,0-0.6,0.1-0.8,0.3c-0.3,0.2-0.4,0.5-0.5,1l-0.9,4.1c0,0.1-0.1,0.2-0.2,0.3c-0.1,0.1-0.2,0.1-0.3,0.1
			h-1.8C173,92.7,173,92.6,172.9,92.5z"/>
		<path class="st0" d="M187.5,92.1c-0.5-0.5-0.8-1.1-0.8-2c0-0.3,0-0.7,0.1-1l0.1-0.5c0.3-1.2,0.8-2.1,1.7-2.7c0.8-0.7,1.8-1,3-1
			c1,0,1.8,0.3,2.3,0.8s0.8,1.2,0.8,2.1c0,0.3,0,0.7-0.1,1l-0.1,0.4c0,0.1-0.1,0.2-0.2,0.3c-0.1,0.1-0.2,0.1-0.3,0.1h-4.6v0.1
			c0,0.2,0,0.3,0,0.5c0,0.3,0.1,0.5,0.2,0.7c0.1,0.2,0.4,0.3,0.7,0.3c0.2,0,0.4,0,0.6-0.1c0.2-0.1,0.3-0.2,0.5-0.4
			c0.1-0.1,0.2-0.2,0.3-0.2s0.1,0,0.3,0h1.9c0.1,0,0.2,0,0.2,0.1s0.1,0.1,0,0.2c-0.1,0.3-0.3,0.6-0.6,0.9c-0.4,0.3-0.8,0.6-1.4,0.9
			c-0.6,0.2-1.3,0.4-2,0.4C188.9,92.8,188.1,92.6,187.5,92.1z M192,88.1L192,88.1c0.1-0.2,0.1-0.3,0.1-0.5c0-0.3-0.1-0.6-0.2-0.7
			c-0.2-0.2-0.4-0.3-0.7-0.3c-0.4,0-0.7,0.1-0.9,0.4c-0.3,0.3-0.4,0.6-0.5,1.1l0,0H192z"/>
	</g>
</g>
</svg>
