<?xml version="1.0" encoding="utf-8"?>
<!-- Generator: Adobe Illustrator 22.0.1, SVG Export Plug-In . SVG Version: 6.00 Build 0)  -->
<svg version="1.1" id="interface" xmlns="http://www.w3.org/2000/svg" xmlns:xlink="http://www.w3.org/1999/xlink" x="0px" y="0px"
	 viewBox="0 0 1280 800" style="enable-background:new 0 0 1280 800;" xml:space="preserve">
<style type="text/css">
	.st0{fill:#FFFFFF;}
	.st1{fill:#DC5F11;}
</style>
<g id="oddset-logo">
	<g>
		<g>
			<g>
				<path class="st0" d="M221.4,43l-1-1.6h-0.5V43H219v-4.2h1.5c1,0,1.6,0.4,1.6,1.3c0,0.5-0.3,0.9-0.8,1.2l0,0l1.2,1.7H221.4z
					 M220.4,39.4h-0.5v1.4h0.5c0.5,0,0.8-0.2,0.8-0.7C221.2,39.5,220.9,39.4,220.4,39.4z"/>
			</g>
			<g>
				<path class="st0" d="M215.9,41.1c0,2.5,2,4.6,4.6,4.6c2.5,0,4.6-2,4.6-4.6c0-2.5-2-4.6-4.6-4.6C218,36.5,215.9,38.6,215.9,41.1z
					 M216.8,41.1c0-2,1.6-3.7,3.7-3.7c2,0,3.7,1.6,3.7,3.7c0,2-1.6,3.7-3.7,3.7C218.5,44.7,216.8,43.1,216.8,41.1z"/>
			</g>
		</g>
		<path class="st1" d="M170.2,35.7l-3.9-4.4l0.4-0.6l3.1-3.5c0.5-0.6,0.9-1.5,0.9-2.2c0-1.6-1.6-3-3.2-3c-1,0-1.6,0.4-2.3,1.2
			l-2.2,3l-0.5,0.6l-0.5-0.6l-2.2-3c-0.6-0.8-1.3-1.2-2.3-1.2c-1.6,0-3.2,1.4-3.2,3c0,0.8,0.4,1.6,0.9,2.2l3.1,3.5l0.4,0.6l-3.9,4.4
			c-0.5,0.5-0.9,1.4-0.9,2.1c0,1.8,1.2,3,3.1,3c1.4,0,1.9-0.6,2.6-1.4l2.8-3.5l2.8,3.5c0.7,0.8,1.2,1.4,2.6,1.4c1.8,0,3.1-1.2,3.1-3
			C171.1,37.1,170.7,36.2,170.2,35.7z"/>
		<g>
			<path class="st0" d="M172.7,65.6c-2,0-5.3-0.1-5.9-0.2c-0.6-0.2-0.9-0.3-1.1-0.6c-0.2-0.4-0.2-0.9-0.2-1.5c0-0.1,0-0.2,0-0.3
				v-0.1v-0.3l0,0c0-0.1,0-0.3,0.2-1.2l0.2-1.2l0.8-4c0.4-2.1,0.6-2.6,0.8-3.2c0.3-0.8,0.5-1.4,1-1.9s0.9-0.7,1.5-0.8
				c0.7-0.2,4-0.2,6-0.2c2.1,0,5.3,0.1,6,0.2c0.6,0.2,0.9,0.4,1.1,0.7c0.3,0.5,0.3,1.2,0.1,2.1c-0.2,1-0.5,1.6-1.1,2.2
				c-0.5,0.5-0.9,0.6-1.5,0.8c-0.7,0.2-4.6,0.2-6.1,0.2h-0.9c-1.3,0-2.6,1.3-2.9,3.1l-0.3,1.5h3.5c1.5,0,5.9-0.1,7.5-0.2
				c1.7-0.1,3.2-0.4,4.9-2.1c1.6-1.7,2.1-3.1,2.6-5.3L189,53l0,0c0.3-2.1,0.3-3.5-0.7-5.3c-1.1-1.9-2.6-2.3-4.1-2.4
				c-1.5-0.1-5.9-0.2-7.4-0.2s-5.8,0.1-7.4,0.2l0,0c-1.9,0.1-3.3,0.8-4.7,2.3s-2.2,3.1-2.8,5.5l-0.3,1.2c-0.3,1.1-0.4,1.7-0.7,3.2
				c-0.3,1.6-0.4,2.2-0.5,3.2l-0.2,1.2c-0.4,2.5-0.2,4.1,0.7,5.7s2.1,2.3,4,2.4c1.5,0.1,14.2,0.1,15.7,0.1c2.5,0,3.1-3.2,3.4-4.8
				h-11.3V65.6z"/>
			<path class="st0" d="M139.9,45.5L139.9,45.5c-5.1,0.2-6.4,5.3-6.6,6.3c-0.4,1.9-0.3,3.4,0.3,4.6c0.6,1.3,1.7,2.1,3.3,2.4
				c1.3,0.3,4.8,0.6,7.8,0.9h0.1c2.1,0.2,4.4,0.4,4.9,0.5c0.7,0.2,1.1,0.4,1.2,0.7c0.1,0.2,0.1,0.6,0,1.1c-0.4,1.8-1.3,2.8-2.8,2.9
				c-2.2,0.2-5.2,0.2-6.1,0.2c-0.7,0-5.8-0.1-7.6-0.3c-0.7,0-1.3,0.2-1.9,0.8c-0.6,0.6-1,1.5-1.2,2.6l-0.3,1.4l1,0.1
				c1.8,0.2,8.1,0.5,9.2,0.5c1.6,0,2.7,0,4.4,0l3.1-0.1c4-0.1,6.3-3.4,7.1-6.4l0.3-1.4l0,0c0.1-0.4,0.2-1,0.2-1.7c0-0.9,0-2-0.5-3
				c-0.7-1.4-2-2.2-3.9-2.4c-3.5-0.4-11.5-1.2-12.4-1.4c-0.6-0.1-1.1-0.3-1.2-0.7c-0.1-0.2-0.1-0.3-0.1-0.5c0-0.1,0-0.2,0-0.2
				c0.2-1.2,0.6-1.9,2.1-2c1.6-0.1,5.3-0.2,7-0.2h2.8h4c1.4,0,2.6-1.3,3-3.2l0.3-1.4l-1.1-0.1c-1.5-0.1-6.1-0.2-8.2-0.2
				C146.1,45.3,143.8,45.4,139.9,45.5z"/>
			<path class="st0" d="M99.6,37.9h-0.2c-2.9,0-4.9,1.9-5.6,5.3L91,57.7c-0.3,1.3-0.8,4-1.2,5.1c-0.3,0.9-0.5,1.4-1,1.9
				s-0.8,0.6-1.5,0.8c-0.8,0.2-4.2,0.2-5.4,0.2c-1.7,0-4.7-0.1-5.3-0.2c-0.6-0.2-0.9-0.3-1.1-0.6c-0.2-0.4-0.2-0.7-0.2-1.6
				c0.1-1.1,0.6-4.1,0.8-5c0.2-1,0.8-4,1.2-5.1c0.3-0.9,0.5-1.4,1-1.9s0.9-0.7,1.5-0.8c0.7-0.1,3.3-0.2,5.4-0.2h0.1h0.4
				c0.6,0,1.2-0.3,1.7-0.8c0.6-0.6,1-1.5,1.2-2.4l0.3-1.4l-1.6-0.1c-0.4,0-0.6-0.1-1.4-0.1c-1.5,0-5.3,0.1-6.8,0.2
				c-1.9,0.1-3.3,0.8-4.7,2.3c-1.4,1.5-2.2,3.1-2.8,5.5l-0.3,1.2c-0.3,1-0.4,1.6-0.7,3.2c-0.3,1.5-0.4,2.1-0.5,3.2l-0.2,1.2
				c-0.4,2.5-0.2,4.1,0.7,5.7c0.9,1.6,2.1,2.3,4,2.4c1.5,0.1,5.2,0.2,6.7,0.2s5.3-0.1,6.8-0.2c1.9-0.1,3.3-0.8,4.7-2.3
				c1.4-1.5,2.2-3.1,2.8-5.5l0.3-1.2c0.3-1,0.4-1.7,0.7-3.2l3.9-20.2h-0.9V37.9z"/>
			<path class="st0" d="M130.4,37.9h-0.2c-2.9,0-4.9,1.9-5.6,5.3l-2.8,14.4c-0.3,1.3-0.8,4-1.2,5.1c-0.3,0.9-0.5,1.4-1,1.9
				s-0.8,0.6-1.5,0.8c-0.8,0.2-4.2,0.2-5.4,0.2c-1.7,0-4.7-0.1-5.3-0.2c-0.6-0.2-0.9-0.3-1.1-0.6c-0.2-0.4-0.2-0.7-0.2-1.6
				c0.1-1.1,0.6-4.1,0.8-5c0.2-1,0.8-4,1.1-5.1c0.3-0.9,0.5-1.4,1-1.9s0.9-0.7,1.5-0.8c0.7-0.1,3.3-0.2,5.4-0.2h0.1h0.4
				c0.6,0,1.2-0.3,1.7-0.8c0.6-0.6,1-1.5,1.2-2.4l0.3-1.4l-1.6-0.1c-0.4,0-0.6-0.1-1.4-0.1c-1.5,0-5.3,0.1-6.8,0.2
				c-1.9,0.1-3.3,0.8-4.7,2.3c-1.4,1.5-2.2,3.1-2.8,5.5l-0.3,1.2c-0.2,1-0.4,1.6-0.7,3.2c-0.3,1.5-0.4,2.1-0.5,3.2l-0.2,1.2
				c-0.4,2.5-0.2,4.1,0.7,5.7c0.9,1.6,2.1,2.3,4,2.4c1.5,0.1,5.2,0.2,6.7,0.2s5.3-0.1,6.8-0.2c1.9-0.1,3.3-0.8,4.7-2.3
				c1.4-1.5,2.2-3.1,2.8-5.5l0.3-1.2c0.3-1,0.4-1.7,0.7-3.2l3.9-20.2C131.2,37.9,130.4,37.9,130.4,37.9z"/>
			<path class="st0" d="M42.5,65.3c-0.6-0.2-0.9-0.3-1.1-0.6c-0.2-0.4-0.3-0.7-0.2-1.6c0.1-1,1-6.2,1.5-8.4c0.3-1.5,1.6-8,1.9-9.1
				c0.2-0.8,0.5-1.3,1-1.9c0.5-0.5,0.8-0.6,1.5-0.8c0.8-0.2,5.8-0.2,7-0.2c1.8,0,6.2,0.1,6.9,0.2c0.6,0.1,0.9,0.3,1.1,0.6
				c0.2,0.4,0.2,0.8,0.2,1.6c-0.1,1-1.1,6.7-1.6,9.1c-0.3,1.4-1.5,7.3-1.8,8.4c-0.3,0.9-0.5,1.4-1,1.9s-0.9,0.6-1.5,0.8
				c-0.8,0.2-5.8,0.2-7,0.2C47.7,65.5,43.2,65.4,42.5,65.3z M46.4,38L46.4,38L46.4,38z M46.4,38c-1.9,0.1-3.3,0.8-4.7,2.3
				s-2.2,3.1-2.8,5.5L38.6,47c-0.3,1-1.2,5.8-1.5,7.2s-1,5.5-1.2,6.6L35.7,62c-0.4,2.5-0.2,4.1,0.7,5.7s2.1,2.3,4,2.4
				c1.5,0.1,6.7,0.2,8.3,0.2c1.5,0,6.8-0.1,8.3-0.2c1.9-0.1,3.3-0.8,4.7-2.3s2.2-3.1,2.8-5.5l0.3-1.2c0.2-1,1.1-5.1,1.3-6.6
				c0.3-1.5,1.2-6.2,1.3-7.2l0.2-1.2c0.4-2.5,0.2-4.1-0.7-5.7c-0.9-1.6-2.1-2.3-4-2.4c-1.4-0.1-6.7-0.2-8.3-0.2
				C53.2,37.8,47.9,37.9,46.4,38z"/>
			<path class="st0" d="M201.8,37.9h-0.6H201c-1.4,0-2.9,0.7-4,1.9c-0.7,0.8-1.2,1.7-1.6,2.6c-0.1,0.3-0.2,0.7-0.3,1l-0.5,2.5
				l-2.1,10.7c-0.4,2.1-0.6,3.4-0.9,5.3c-0.4,2.5-0.2,4.1,0.7,5.7s2,2.3,4,2.5c1.5,0.1,6.7,0.2,8.1,0.2h1.5c1.4,0,2.6-1.5,3-3.4
				l0.1-0.3l0.2-1.2h-4c-2.2,0-6,0-6.7-0.1c-0.6-0.1-0.9-0.3-1.1-0.6c-0.2-0.3-0.2-0.7-0.2-1.4c0-0.1,0-0.1,0-0.2
				c0.1-1.1,0.7-4.8,1-6l1.3-6.9h9.9l0.9-4.7h-9.9L201.8,37.9z"/>
		</g>
	</g>
	<g>
		<path class="st0" d="M33.7,89.3c-0.1-0.1-0.1-0.2-0.1-0.3l2-9.5c0-0.1,0.1-0.2,0.2-0.3c0.1-0.1,0.2-0.1,0.3-0.1h6.8
			c0.1,0,0.2,0,0.2,0.1c0.1,0.1,0.1,0.2,0.1,0.3L42.9,81c0,0.1-0.1,0.2-0.2,0.3c-0.1,0.1-0.2,0.1-0.3,0.1H38l-0.4,2h4.2
			c0.1,0,0.2,0,0.2,0.1c0.1,0.1,0.1,0.2,0.1,0.3l-0.3,1.5c0,0.1-0.1,0.2-0.2,0.3c-0.1,0.1-0.2,0.1-0.3,0.1H37L36.3,89
			c0,0.1-0.1,0.2-0.2,0.3c-0.1,0.1-0.2,0.1-0.3,0.1H34C33.8,89.4,33.8,89.4,33.7,89.3z"/>
		<path class="st0" d="M42.5,89.3c-0.1-0.1-0.1-0.2-0.1-0.3l1.4-6.8c0-0.1,0.1-0.2,0.2-0.3c0.1-0.1,0.2-0.1,0.3-0.1h1.8
			c0.1,0,0.2,0,0.2,0.1c0.1,0.1,0.1,0.2,0.1,0.3l-0.1,0.6c0.3-0.3,0.6-0.5,0.9-0.7c0.3-0.2,0.8-0.2,1.3-0.2h0.8c0.1,0,0.2,0,0.2,0.1
			c0.1,0.1,0.1,0.2,0.1,0.3l-0.3,1.6c0,0.1-0.1,0.2-0.1,0.3c-0.1,0.1-0.2,0.1-0.3,0.1h-1.5c-0.4,0-0.7,0.1-1,0.3
			c-0.3,0.2-0.4,0.5-0.5,0.9L45.1,89c0,0.1-0.1,0.2-0.2,0.3c-0.1,0.1-0.2,0.1-0.3,0.1h-1.9C42.6,89.4,42.5,89.4,42.5,89.3z"/>
		<path class="st0" d="M50.5,88.8c-0.5-0.5-0.8-1.1-0.8-2c0-0.3,0-0.7,0.1-1l0.1-0.5c0.3-1.2,0.8-2.1,1.7-2.7c0.8-0.7,1.8-1,3-1
			c1,0,1.8,0.3,2.3,0.8s0.8,1.2,0.8,2.1c0,0.3,0,0.7-0.1,1l-0.1,0.4c0,0.1-0.1,0.2-0.2,0.3c-0.1,0.1-0.2,0.1-0.3,0.1h-4.6v0.1
			c0,0.2,0,0.3,0,0.5c0,0.3,0.1,0.5,0.2,0.7c0.1,0.2,0.4,0.3,0.7,0.3c0.2,0,0.4,0,0.6-0.1c0.2-0.1,0.3-0.2,0.5-0.4
			c0.1-0.1,0.2-0.2,0.3-0.2s0.1,0,0.3,0h1.9c0.1,0,0.2,0,0.2,0.1s0.1,0.1,0,0.2c-0.1,0.3-0.3,0.6-0.6,0.9c-0.4,0.3-0.8,0.6-1.4,0.9
			c-0.6,0.2-1.3,0.4-2,0.4C51.8,89.5,51,89.3,50.5,88.8z M54.9,84.8L54.9,84.8c0.1-0.2,0.1-0.3,0.1-0.5c0-0.3-0.1-0.6-0.2-0.7
			c-0.2-0.2-0.4-0.3-0.7-0.3c-0.4,0-0.7,0.1-0.9,0.4c-0.3,0.3-0.4,0.6-0.5,1.1l0,0H54.9z"/>
		<path class="st0" d="M59.1,88.8c-0.5-0.5-0.8-1.1-0.8-2c0-0.3,0-0.7,0.1-1l0.1-0.5c0.3-1.2,0.8-2.1,1.7-2.7c0.8-0.7,1.8-1,3-1
			c1,0,1.8,0.3,2.3,0.8s0.8,1.2,0.8,2.1c0,0.3,0,0.7-0.1,1l-0.1,0.4c0,0.1-0.1,0.2-0.2,0.3c-0.1,0.1-0.2,0.1-0.3,0.1H61v0.1
			c0,0.2,0,0.3,0,0.5c0,0.3,0.1,0.5,0.2,0.7c0.1,0.2,0.4,0.3,0.7,0.3c0.2,0,0.4,0,0.6-0.1c0.2-0.1,0.3-0.2,0.5-0.4
			c0.1-0.1,0.2-0.2,0.3-0.2s0.1,0,0.3,0h1.9c0.1,0,0.2,0,0.2,0.1s0.1,0.1,0,0.2c-0.1,0.3-0.3,0.6-0.6,0.9c-0.4,0.3-0.8,0.6-1.4,0.9
			c-0.6,0.2-1.3,0.4-2,0.4C60.5,89.5,59.7,89.3,59.1,88.8z M63.6,84.8L63.6,84.8c0.1-0.2,0.1-0.3,0.1-0.5c0-0.3-0.1-0.6-0.2-0.7
			c-0.2-0.2-0.4-0.3-0.7-0.3c-0.4,0-0.7,0.1-0.9,0.4c-0.3,0.3-0.4,0.6-0.5,1.1l0,0H63.6z"/>
		<path class="st0" d="M69.8,89.3c-0.1-0.1-0.1-0.2-0.1-0.3l2-9.5c0-0.1,0.1-0.2,0.2-0.3c0.1-0.1,0.2-0.1,0.3-0.1h2.1
			c0.1,0,0.2,0,0.2,0.1c0.1,0.1,0.1,0.2,0.1,0.3l-2,9.5c0,0.1-0.1,0.2-0.2,0.3c-0.1,0.1-0.2,0.1-0.3,0.1H70
			C69.9,89.4,69.8,89.4,69.8,89.3z"/>
		<path class="st0" d="M74.4,89.3c-0.1-0.1-0.1-0.2-0.1-0.3l1.4-6.9c0-0.1,0.1-0.2,0.2-0.3c0.1-0.1,0.2-0.1,0.3-0.1H78
			c0.1,0,0.2,0,0.2,0.1c0.1,0.1,0.1,0.2,0.1,0.3l-0.1,0.6c0.7-0.7,1.6-1.1,2.5-1.1c0.8,0,1.4,0.2,1.8,0.6s0.6,1,0.6,1.7
			c0,0.3,0,0.6-0.1,1L82.2,89c0,0.1-0.1,0.2-0.2,0.3c-0.1,0.1-0.2,0.1-0.3,0.1h-1.9c-0.1,0-0.2,0-0.2-0.1s-0.1-0.2-0.1-0.3l0.8-4
			c0-0.2,0.1-0.4,0.1-0.5c0-0.3-0.1-0.5-0.2-0.6c-0.2-0.1-0.4-0.2-0.7-0.2c-0.4,0-0.8,0.1-1,0.4s-0.5,0.6-0.6,1l-0.8,4
			c0,0.1-0.1,0.2-0.2,0.3c-0.1,0.1-0.2,0.1-0.3,0.1h-1.9C74.6,89.4,74.5,89.4,74.4,89.3z"/>
		<path class="st0" d="M85,87.3c0-0.3,0-0.6,0.1-0.9l0.6-2.7h-1.1c-0.1,0-0.2,0-0.2-0.1c-0.1-0.1-0.1-0.2,0-0.3l0.2-1.3
			c0-0.1,0.1-0.2,0.2-0.3c0.1-0.1,0.2-0.1,0.3-0.1h1.2l0.5-2.4c0-0.1,0.1-0.2,0.2-0.3c0.1-0.1,0.2-0.1,0.3-0.1h1.8
			c0.1,0,0.2,0,0.2,0.1c0.1,0.1,0.1,0.2,0.1,0.3l-0.5,2.4h1.8c0.1,0,0.2,0,0.2,0.1C91,81.8,91,81.9,91,82l-0.3,1.3
			c0,0.1-0.1,0.2-0.2,0.3c-0.1,0.1-0.2,0.1-0.3,0.1h-1.8l-0.5,2.5c0,0.2-0.1,0.3-0.1,0.5s0,0.3,0.1,0.4s0.2,0.1,0.5,0.1h1.2
			c0.1,0,0.2,0,0.2,0.1c0.1,0.1,0.1,0.2,0.1,0.3L89.4,89c0,0.1-0.1,0.2-0.2,0.3c-0.1,0.1-0.2,0.1-0.3,0.1h-1.2
			C85.9,89.4,85,88.7,85,87.3z"/>
		<path class="st0" d="M91.9,88.8c-0.5-0.5-0.8-1.1-0.8-2c0-0.3,0-0.7,0.1-1l0.1-0.5c0.3-1.2,0.8-2.1,1.7-2.7c0.8-0.7,1.8-1,3-1
			c1,0,1.8,0.3,2.3,0.8s0.8,1.2,0.8,2.1c0,0.3,0,0.7-0.1,1l-0.1,0.4c0,0.1-0.1,0.2-0.2,0.3c-0.1,0.1-0.2,0.1-0.3,0.1h-4.6v0.1
			c0,0.2,0,0.3,0,0.5c0,0.3,0.1,0.5,0.2,0.7s0.4,0.3,0.7,0.3c0.2,0,0.4,0,0.6-0.1s0.3-0.2,0.5-0.4c0.1-0.1,0.2-0.2,0.3-0.2
			s0.1,0,0.3,0h1.9c0.1,0,0.2,0,0.2,0.1s0.1,0.1,0,0.2c-0.1,0.3-0.3,0.6-0.6,0.9c-0.4,0.3-0.8,0.6-1.4,0.9c-0.6,0.2-1.3,0.4-2,0.4
			C93.2,89.5,92.4,89.3,91.9,88.8z M96.4,84.8L96.4,84.8c0.1-0.2,0.1-0.3,0.1-0.5c0-0.3-0.1-0.6-0.2-0.7c-0.2-0.2-0.4-0.3-0.7-0.3
			c-0.4,0-0.7,0.1-0.9,0.4c-0.3,0.3-0.4,0.6-0.5,1.1l0,0H96.4z"/>
		<path class="st0" d="M99.3,89.3c-0.1-0.1-0.1-0.2-0.1-0.3l1.4-6.8c0-0.1,0.1-0.2,0.2-0.3c0.1-0.1,0.2-0.1,0.3-0.1h1.8
			c0.1,0,0.2,0,0.2,0.1c0.1,0.1,0.1,0.2,0.1,0.3l-0.1,0.6c0.3-0.3,0.6-0.5,0.9-0.7s0.8-0.2,1.3-0.2h0.8c0.1,0,0.2,0,0.2,0.1
			c0.1,0.1,0.1,0.2,0.1,0.3l-0.3,1.6c0,0.1-0.1,0.2-0.1,0.3c-0.1,0.1-0.2,0.1-0.3,0.1h-1.5c-0.4,0-0.7,0.1-1,0.3
			c-0.3,0.2-0.4,0.5-0.5,0.9l-0.8,3.7c0,0.1-0.1,0.2-0.2,0.3c-0.1,0.1-0.2,0.1-0.3,0.1h-1.9C99.4,89.4,99.4,89.4,99.3,89.3z"/>
		<path class="st0" d="M106.9,88.9c-0.4-0.4-0.7-1.1-0.7-1.9c0-0.3,0-0.6,0.1-0.9l0.2-1c0.3-1.1,0.7-1.9,1.4-2.5
			c0.6-0.6,1.4-0.9,2.4-0.9c0.5,0,1,0.1,1.3,0.2s0.6,0.4,0.8,0.6l0.1-0.4c0-0.1,0.1-0.2,0.2-0.3c0.1-0.1,0.2-0.1,0.3-0.1h1.7
			c0.1,0,0.2,0,0.2,0.1c0.1,0.1,0.1,0.2,0.1,0.3l-1.5,6.9c0,0.1-0.1,0.2-0.2,0.3c-0.1,0.1-0.2,0.1-0.3,0.1h-1.7
			c-0.1,0-0.2,0-0.2-0.1c-0.1-0.1-0.1-0.2-0.1-0.3l0.1-0.5c-0.3,0.3-0.7,0.6-1,0.7s-0.8,0.2-1.3,0.2C108,89.5,107.3,89.3,106.9,88.9
			z M110.9,87.1c0.3-0.3,0.5-0.6,0.6-1s0.2-0.8,0.2-1.1c0-0.2,0-0.3,0-0.3c0-0.3-0.1-0.5-0.2-0.7c-0.2-0.2-0.4-0.3-0.7-0.3
			c-0.4,0-0.7,0.1-1,0.4c-0.2,0.3-0.4,0.6-0.6,1.1c-0.1,0.3-0.2,0.6-0.2,0.9c0,0.2,0,0.3,0,0.5c0,0.3,0.1,0.5,0.2,0.7
			s0.4,0.2,0.7,0.2C110.3,87.5,110.6,87.4,110.9,87.1z"/>
		<path class="st0" d="M117,89.2c-0.5-0.2-0.9-0.5-1.2-0.9s-0.4-0.9-0.4-1.5c0-0.2,0-0.4,0-0.6l0.2-1.2c0.3-1.1,0.8-1.9,1.6-2.5
			c0.8-0.6,1.7-0.9,2.8-0.9c0.8,0,1.4,0.1,1.9,0.4s0.9,0.6,1.1,1s0.4,0.8,0.4,1.1v0.2c0,0.1-0.1,0.2-0.1,0.3
			c-0.1,0.1-0.2,0.1-0.3,0.1h-2c-0.2,0-0.3-0.1-0.3-0.3c0-0.3-0.1-0.5-0.2-0.6s-0.4-0.2-0.6-0.2c-0.8,0-1.3,0.5-1.5,1.5
			c-0.1,0.5-0.2,0.9-0.2,1c0,0.3-0.1,0.5-0.1,0.5c0,0.3,0.1,0.6,0.2,0.7c0.1,0.2,0.4,0.2,0.7,0.2c0.3,0,0.5-0.1,0.7-0.2
			s0.4-0.3,0.5-0.6c0.1-0.1,0.1-0.2,0.2-0.2s0.2-0.1,0.3-0.1h2c0.1,0,0.2,0,0.2,0.1c0.1,0.1,0.1,0.2,0,0.3c-0.1,0.3-0.3,0.7-0.6,1.1
			c-0.3,0.4-0.8,0.8-1.4,1.1c-0.6,0.3-1.4,0.5-2.3,0.5C118,89.5,117.5,89.4,117,89.2z"/>
		<path class="st0" d="M125,87.3c0-0.3,0-0.6,0.1-0.9l0.6-2.7h-1.1c-0.1,0-0.2,0-0.2-0.1c-0.1-0.1-0.1-0.2,0-0.3l0.2-1.3
			c0-0.1,0.1-0.2,0.2-0.3c0.1-0.1,0.2-0.1,0.3-0.1h1.2l0.5-2.4c0-0.1,0.1-0.2,0.2-0.3c0.1-0.1,0.2-0.1,0.3-0.1h1.8
			c0.1,0,0.2,0,0.2,0.1c0.1,0.1,0.1,0.2,0.1,0.3l-0.5,2.4h1.8c0.1,0,0.2,0,0.2,0.1c0.1,0.1,0.1,0.2,0.1,0.3l-0.3,1.3
			c0,0.1-0.1,0.2-0.2,0.3c-0.1,0.1-0.2,0.1-0.3,0.1h-1.8l-0.5,2.5c0,0.2-0.1,0.3-0.1,0.5s0,0.3,0.1,0.4s0.2,0.1,0.5,0.1h1.2
			c0.1,0,0.2,0,0.2,0.1c0.1,0.1,0.1,0.2,0.1,0.3l-0.3,1.3c0,0.1-0.1,0.2-0.2,0.3c-0.1,0.1-0.2,0.1-0.3,0.1h-1.2
			C125.9,89.4,125,88.7,125,87.3z"/>
		<path class="st0" d="M130.7,89.3c-0.1-0.1-0.1-0.2-0.1-0.3l1.4-6.9c0-0.1,0.1-0.2,0.2-0.3c0.1-0.1,0.2-0.1,0.3-0.1h1.8
			c0.1,0,0.2,0,0.2,0.1c0.1,0.1,0.1,0.2,0.1,0.3l-1.5,6.9c0,0.1-0.1,0.2-0.2,0.3c-0.1,0.1-0.2,0.1-0.3,0.1L130.7,89.3
			C130.8,89.4,130.7,89.4,130.7,89.3z M132.5,80.6c-0.1-0.1-0.1-0.2-0.1-0.3l0.3-1.4c0-0.1,0.1-0.2,0.2-0.3c0.1-0.1,0.2-0.1,0.3-0.1
			h1.8c0.1,0,0.2,0,0.2,0.1c0.1,0.1,0.1,0.2,0.1,0.3l-0.3,1.4c0,0.1-0.1,0.2-0.1,0.3s-0.2,0.1-0.3,0.1h-1.8
			C132.6,80.8,132.6,80.7,132.5,80.6z"/>
		<path class="st0" d="M137.2,89.3c-0.1-0.1-0.1-0.2-0.1-0.3l-1.3-6.8c0-0.1,0-0.2,0.1-0.3c0.1-0.1,0.2-0.1,0.3-0.1h1.6
			c0.1,0,0.2,0,0.3,0.1s0.1,0.1,0.1,0.2l0.7,4.3l2.5-4.4c0.1-0.2,0.3-0.3,0.5-0.3h1.9c0.1,0,0.2,0,0.2,0.1c0,0,0.1,0.1,0.1,0.2
			s0,0.1-0.1,0.2l-4.2,6.8c-0.1,0.1-0.2,0.2-0.2,0.3s-0.2,0.1-0.3,0.1h-1.7C137.3,89.4,137.2,89.4,137.2,89.3z"/>
		<path class="st0" d="M144.6,88.8c-0.5-0.5-0.8-1.1-0.8-2c0-0.3,0-0.7,0.1-1l0.1-0.5c0.3-1.2,0.8-2.1,1.7-2.7c0.8-0.7,1.8-1,3-1
			c1,0,1.8,0.3,2.3,0.8s0.8,1.2,0.8,2.1c0,0.3,0,0.7-0.1,1l-0.1,0.4c0,0.1-0.1,0.2-0.2,0.3c-0.1,0.1-0.2,0.1-0.3,0.1h-4.6v0.1
			c0,0.2,0,0.3,0,0.5c0,0.3,0.1,0.5,0.2,0.7c0.1,0.2,0.4,0.3,0.7,0.3c0.2,0,0.4,0,0.6-0.1c0.2-0.1,0.3-0.2,0.5-0.4
			c0.1-0.1,0.2-0.2,0.3-0.2s0.1,0,0.3,0h1.9c0.1,0,0.2,0,0.2,0.1s0.1,0.1,0,0.2c-0.1,0.3-0.3,0.6-0.6,0.9c-0.4,0.3-0.8,0.6-1.4,0.9
			c-0.6,0.2-1.3,0.4-2,0.4C145.9,89.5,145.2,89.3,144.6,88.8z M149.1,84.8L149.1,84.8c0.1-0.2,0.1-0.3,0.1-0.5
			c0-0.3-0.1-0.6-0.2-0.7c-0.2-0.2-0.4-0.3-0.7-0.3c-0.4,0-0.7,0.1-0.9,0.4c-0.3,0.3-0.4,0.6-0.5,1.1l0,0H149.1z"/>
		<path class="st0" d="M156.8,88.7c-0.7-0.5-1-1.3-1-2.3c0-0.3,0-0.6,0.1-0.9c0.1-0.8,0.3-1.7,0.6-2.7c0.3-1.2,0.9-2.2,1.9-2.8
			c1-0.7,2.1-1,3.5-1c0.9,0,1.6,0.1,2.2,0.4s1.1,0.6,1.3,1c0.3,0.4,0.4,0.8,0.4,1.3c0,0.2,0,0.3,0,0.4s-0.1,0.2-0.1,0.2
			c-0.1,0.1-0.2,0.1-0.2,0.1h-2.3c-0.1,0-0.2,0-0.2-0.1c0,0-0.1-0.1-0.1-0.2c-0.1-0.3-0.2-0.5-0.4-0.7s-0.6-0.3-1-0.3
			c-1.1,0-1.8,0.6-2.1,1.7c-0.2,0.7-0.4,1.6-0.5,2.5c0,0.3-0.1,0.4-0.1,0.5c0,0.9,0.5,1.3,1.5,1.3c0.6,0,1-0.1,1.4-0.4
			s0.6-0.7,0.8-1.3l0.1-0.3H161c-0.1,0-0.2,0-0.2-0.1c-0.1-0.1-0.1-0.2,0-0.3l0.2-1.1c0-0.1,0.1-0.2,0.2-0.3
			c0.1-0.1,0.2-0.1,0.3-0.1h3.7c0.1,0,0.2,0,0.2,0.1c0.1,0.1,0.1,0.2,0.1,0.3l-0.4,1.7c-0.2,0.8-0.5,1.5-1,2.1s-1.1,1.1-1.9,1.4
			c-0.8,0.3-1.6,0.5-2.6,0.5C158.4,89.5,157.4,89.3,156.8,88.7z"/>
		<path class="st0" d="M166.6,88.9c-0.4-0.4-0.7-1.1-0.7-1.9c0-0.3,0-0.6,0.1-0.9l0.2-1c0.3-1.1,0.7-1.9,1.4-2.5
			c0.6-0.6,1.4-0.9,2.4-0.9c0.5,0,1,0.1,1.3,0.2s0.6,0.4,0.8,0.6l0.1-0.4c0-0.1,0.1-0.2,0.2-0.3c0.1-0.1,0.2-0.1,0.3-0.1h1.7
			c0.1,0,0.2,0,0.2,0.1c0.1,0.1,0.1,0.2,0.1,0.3l-1.5,6.9c0,0.1-0.1,0.2-0.2,0.3c-0.1,0.1-0.2,0.1-0.3,0.1H171c-0.1,0-0.2,0-0.2-0.1
			c-0.1-0.1-0.1-0.2-0.1-0.3l0.1-0.5c-0.3,0.3-0.7,0.6-1,0.7s-0.8,0.2-1.3,0.2C167.6,89.5,167,89.3,166.6,88.9z M170.6,87.1
			c0.3-0.3,0.5-0.6,0.6-1s0.2-0.8,0.2-1.1c0-0.2,0-0.3,0-0.3c0-0.3-0.1-0.5-0.2-0.7c-0.2-0.2-0.4-0.3-0.7-0.3c-0.4,0-0.7,0.1-1,0.4
			c-0.2,0.3-0.4,0.6-0.6,1.1c-0.1,0.3-0.2,0.6-0.2,0.9c0,0.2,0,0.3,0,0.5c0,0.3,0.1,0.5,0.2,0.7c0.1,0.2,0.4,0.2,0.7,0.2
			C170,87.5,170.3,87.4,170.6,87.1z"/>
		<path class="st0" d="M174.9,89.3c-0.1-0.1-0.1-0.2-0.1-0.3l1.4-6.9c0-0.1,0.1-0.2,0.2-0.3c0.1-0.1,0.2-0.1,0.3-0.1h1.7
			c0.1,0,0.2,0,0.2,0.1c0.1,0.1,0.1,0.2,0.1,0.3l-0.1,0.5c0.3-0.3,0.6-0.6,1-0.7c0.3-0.2,0.7-0.3,1.2-0.3c0.6,0,1,0.1,1.4,0.3
			c0.3,0.2,0.6,0.5,0.7,0.9c0.3-0.4,0.7-0.7,1.1-0.9s0.8-0.3,1.3-0.3c0.7,0,1.2,0.2,1.7,0.6s0.6,0.9,0.6,1.7c0,0.3,0,0.6-0.1,1
			l-0.9,4.1c0,0.1-0.1,0.2-0.2,0.3c-0.1,0.1-0.2,0.1-0.3,0.1h-1.8c-0.1,0-0.2,0-0.2-0.1c-0.1-0.1-0.1-0.2-0.1-0.3l0.9-4
			c0-0.2,0.1-0.3,0.1-0.5c0-0.5-0.3-0.8-0.8-0.8c-0.3,0-0.6,0.1-0.8,0.3c-0.3,0.2-0.4,0.5-0.5,1l-0.9,4c0,0.1-0.1,0.2-0.2,0.3
			c-0.1,0.1-0.2,0.1-0.3,0.1h-1.8c-0.1,0-0.2,0-0.2-0.1c-0.1-0.1-0.1-0.2-0.1-0.3l0.9-4c0-0.2,0.1-0.3,0.1-0.5
			c0-0.5-0.3-0.8-0.8-0.8c-0.3,0-0.6,0.1-0.8,0.3c-0.3,0.2-0.4,0.5-0.5,1l-0.9,4.1c0,0.1-0.1,0.2-0.2,0.3c-0.1,0.1-0.2,0.1-0.3,0.1
			h-1.8C175,89.4,174.9,89.4,174.9,89.3z"/>
		<path class="st0" d="M189.5,88.8c-0.5-0.5-0.8-1.1-0.8-2c0-0.3,0-0.7,0.1-1l0.1-0.5c0.3-1.2,0.8-2.1,1.7-2.7c0.8-0.7,1.8-1,3-1
			c1,0,1.8,0.3,2.3,0.8s0.8,1.2,0.8,2.1c0,0.3,0,0.7-0.1,1l-0.1,0.4c0,0.1-0.1,0.2-0.2,0.3c-0.1,0.1-0.2,0.1-0.3,0.1h-4.6v0.1
			c0,0.2,0,0.3,0,0.5c0,0.3,0.1,0.5,0.2,0.7c0.1,0.2,0.4,0.3,0.7,0.3c0.2,0,0.4,0,0.6-0.1c0.2-0.1,0.3-0.2,0.5-0.4
			c0.1-0.1,0.2-0.2,0.3-0.2s0.1,0,0.3,0h1.9c0.1,0,0.2,0,0.2,0.1s0.1,0.1,0,0.2c-0.1,0.3-0.3,0.6-0.6,0.9c-0.4,0.3-0.8,0.6-1.4,0.9
			c-0.6,0.2-1.3,0.4-2,0.4C190.8,89.5,190,89.3,189.5,88.8z M194,84.8L194,84.8c0.1-0.2,0.1-0.3,0.1-0.5c0-0.3-0.1-0.6-0.2-0.7
			c-0.2-0.2-0.4-0.3-0.7-0.3c-0.4,0-0.7,0.1-0.9,0.4c-0.3,0.3-0.4,0.6-0.5,1.1l0,0H194z"/>
	</g>
</g>
</svg>
