<?xml version="1.0" encoding="utf-8"?>
<!-- Generator: Adobe Illustrator 22.0.1, SVG Export Plug-In . SVG Version: 6.00 Build 0)  -->
<svg version="1.1" xmlns="http://www.w3.org/2000/svg" xmlns:xlink="http://www.w3.org/1999/xlink" x="0px" y="0px"
	 viewBox="0 0 1280 800" style="enable-background:new 0 0 1280 800;" xml:space="preserve">
<style type="text/css">
	.st0{fill:#FFFFFF;}
	.st1{opacity:0.5;fill:#031123;}
	.st2{fill:#031123;}
	.st3{fill:url(#SVGID_1_);}
	.st4{fill:url(#SVGID_2_);}
	.st5{fill:url(#SVGID_3_);}
	.st6{fill:#22B573;}
</style>
<g id="rules-display">
	<g>
		<path class="st0" d="M555.4,504c-0.1-0.1-0.2-0.3-0.2-0.4V488c0-0.2,0.1-0.3,0.2-0.4s0.3-0.2,0.4-0.2h2.7c0.4,0,0.7,0.2,0.9,0.5
			l4.1,7.4l4.2-7.4c0.2-0.4,0.5-0.5,0.9-0.5h2.7c0.2,0,0.3,0.1,0.4,0.2s0.2,0.3,0.2,0.4v15.6c0,0.2-0.1,0.3-0.2,0.4
			c-0.1,0.1-0.3,0.2-0.4,0.2h-3c-0.2,0-0.3-0.1-0.4-0.2c-0.1-0.1-0.2-0.3-0.2-0.4v-8.7l-2.6,4.8c-0.2,0.4-0.5,0.6-0.8,0.6h-1.3
			c-0.3,0-0.6-0.2-0.8-0.6l-2.6-4.8v8.7c0,0.2-0.1,0.3-0.2,0.4c-0.1,0.1-0.3,0.2-0.4,0.2h-3C555.7,504.2,555.5,504.1,555.4,504z"/>
		<path class="st0" d="M576.3,504c-0.7-0.3-1.2-0.8-1.6-1.4c-0.4-0.6-0.6-1.2-0.6-1.9c0-1.1,0.5-2,1.4-2.7c0.9-0.7,2.1-1.1,3.7-1.4
			l3-0.5v-0.3c0-0.6-0.1-1-0.4-1.3c-0.2-0.3-0.6-0.4-1.2-0.4c-0.3,0-0.6,0.1-0.8,0.2s-0.5,0.3-0.7,0.5c-0.2,0.2-0.4,0.3-0.6,0.4
			c-0.1,0.1-0.1,0.2-0.2,0.2h-2.8c-0.2,0-0.3-0.1-0.4-0.2c-0.1-0.1-0.1-0.2-0.1-0.4c0-0.4,0.2-0.9,0.6-1.5s1-1,1.9-1.4
			c0.8-0.4,1.9-0.6,3.1-0.6c2,0,3.5,0.4,4.4,1.3s1.4,2.1,1.4,3.5v7.3c0,0.2-0.1,0.3-0.2,0.4c-0.1,0.1-0.3,0.2-0.4,0.2h-3
			c-0.2,0-0.3-0.1-0.4-0.2c-0.1-0.1-0.2-0.3-0.2-0.4v-0.8c-0.4,0.5-0.8,0.9-1.5,1.2c-0.6,0.3-1.4,0.5-2.2,0.5
			C577.8,504.4,577,504.3,576.3,504z M581.6,500.9c0.4-0.5,0.7-1.1,0.7-2v-0.3l-2,0.3c-1.3,0.3-2,0.7-2,1.4c0,0.4,0.2,0.7,0.5,0.9
			c0.3,0.2,0.7,0.3,1.2,0.3C580.6,501.6,581.1,501.4,581.6,500.9z"/>
		<path class="st0" d="M589.3,504c-0.1-0.1-0.2-0.3-0.2-0.4v-15.8c0-0.2,0.1-0.3,0.2-0.4c0.1-0.1,0.3-0.2,0.4-0.2h2.9
			c0.2,0,0.3,0.1,0.4,0.2c0.1,0.1,0.2,0.3,0.2,0.4v8l3.2-3.6c0,0,0.1-0.1,0.2-0.2c0.1-0.1,0.2-0.1,0.3-0.2c0.1,0,0.2-0.1,0.4-0.1
			h3.4c0.1,0,0.3,0.1,0.4,0.2c0.1,0.1,0.2,0.2,0.2,0.4c0,0.1-0.1,0.3-0.2,0.4l-4.2,4.7l4.8,6c0.1,0.1,0.2,0.3,0.2,0.4
			c0,0.2-0.1,0.3-0.2,0.4c-0.1,0.1-0.2,0.2-0.4,0.2h-3.5c-0.2,0-0.4,0-0.5-0.1c-0.1-0.1-0.2-0.2-0.4-0.3l-3.6-4.5v4.3
			c0,0.2-0.1,0.3-0.2,0.4c-0.1,0.1-0.3,0.2-0.4,0.2h-2.9C589.6,504.2,589.4,504.1,589.3,504z"/>
		<path class="st0" d="M604,502.9c-1.1-1-1.7-2.6-1.7-4.6v-0.7c0.1-1.9,0.7-3.4,1.8-4.5c1.1-1.1,2.6-1.6,4.5-1.6
			c1.4,0,2.5,0.3,3.5,0.8c1,0.6,1.7,1.3,2.1,2.3c0.5,1,0.7,2.1,0.7,3.3v0.6c0,0.2-0.1,0.3-0.2,0.4c-0.1,0.1-0.3,0.2-0.4,0.2h-7.6
			v0.1c0,0.7,0.2,1.3,0.5,1.7c0.3,0.4,0.8,0.7,1.4,0.7c0.4,0,0.7-0.1,0.9-0.2c0.2-0.2,0.5-0.3,0.7-0.6c0.1-0.2,0.3-0.3,0.3-0.3
			s0.2-0.1,0.4-0.1h3.1c0.1,0,0.3,0,0.4,0.1c0.1,0.1,0.2,0.2,0.2,0.3c0,0.4-0.2,0.9-0.7,1.5c-0.5,0.6-1.2,1-2.1,1.4
			c-0.9,0.4-2,0.6-3.2,0.6C606.7,504.4,605.1,503.9,604,502.9z M610.5,496.7L610.5,496.7c0-0.8-0.2-1.4-0.5-1.8s-0.8-0.6-1.4-0.6
			c-0.6,0-1.1,0.2-1.4,0.6s-0.5,1-0.5,1.8v0H610.5z"/>
		<path class="st0" d="M623.5,508.6c-0.1-0.1-0.1-0.2-0.1-0.4c0-0.1,0-0.2,0-0.3l1.9-4.5l-4.6-10.9c0-0.1-0.1-0.2-0.1-0.3
			c0-0.2,0.1-0.3,0.2-0.4c0.1-0.1,0.2-0.2,0.4-0.2h2.9c0.3,0,0.6,0.2,0.7,0.5l2.7,6.8l2.7-6.8c0.2-0.3,0.4-0.5,0.7-0.5h2.8
			c0.1,0,0.3,0.1,0.4,0.2c0.1,0.1,0.2,0.2,0.2,0.3c0,0.1,0,0.2,0,0.3l-6.8,15.7c-0.2,0.3-0.4,0.5-0.7,0.5h-2.8
			C623.7,508.8,623.6,508.7,623.5,508.6z"/>
		<path class="st0" d="M636.8,503c-1.1-0.9-1.7-2.3-1.8-4c0-0.2,0-0.6,0-1.1c0-0.5,0-0.9,0-1.1c0.1-1.7,0.7-3,1.8-4
			c1.1-1,2.6-1.4,4.6-1.4c2,0,3.5,0.5,4.6,1.4s1.7,2.3,1.8,4c0,0.4,0,0.8,0,1.1c0,0.3,0,0.7,0,1.1c-0.1,1.7-0.7,3.1-1.8,4
			c-1.1,0.9-2.6,1.4-4.6,1.4C639.4,504.4,637.9,504,636.8,503z M642.9,500.8c0.3-0.4,0.5-1,0.6-1.9c0-0.2,0-0.5,0-1c0-0.5,0-0.8,0-1
			c0-0.8-0.2-1.5-0.6-1.9c-0.3-0.4-0.8-0.6-1.5-0.6c-0.7,0-1.1,0.2-1.5,0.6c-0.3,0.4-0.5,1-0.6,1.9l0,1l0,1c0,0.8,0.2,1.5,0.6,1.9
			c0.3,0.4,0.8,0.6,1.5,0.6C642.1,501.4,642.6,501.2,642.9,500.8z"/>
		<path class="st0" d="M651.3,503c-0.9-0.9-1.3-2.3-1.3-4v-6.7c0-0.2,0.1-0.3,0.2-0.4c0.1-0.1,0.3-0.2,0.4-0.2h3.2
			c0.2,0,0.3,0.1,0.4,0.2c0.1,0.1,0.2,0.3,0.2,0.4v6.6c0,1.5,0.7,2.2,2,2.2c0.6,0,1.1-0.2,1.5-0.6c0.4-0.4,0.5-0.9,0.5-1.6v-6.6
			c0-0.2,0.1-0.3,0.2-0.4c0.1-0.1,0.3-0.2,0.4-0.2h3.2c0.2,0,0.3,0.1,0.4,0.2c0.1,0.1,0.2,0.3,0.2,0.4v11.3c0,0.2-0.1,0.3-0.2,0.4
			c-0.1,0.1-0.3,0.2-0.4,0.2h-2.9c-0.2,0-0.3-0.1-0.4-0.2c-0.1-0.1-0.2-0.3-0.2-0.4v-0.9c-0.8,1.2-2.2,1.8-4,1.8
			C653.3,504.4,652.2,504,651.3,503z"/>
		<path class="st0" d="M665.8,504c-0.1-0.1-0.2-0.3-0.2-0.4v-11.3c0-0.2,0.1-0.3,0.2-0.4c0.1-0.1,0.3-0.2,0.4-0.2h2.9
			c0.2,0,0.3,0.1,0.4,0.2s0.2,0.3,0.2,0.4v0.9c0.4-0.5,1-0.9,1.6-1.1c0.6-0.3,1.3-0.4,2-0.4h1.1c0.2,0,0.3,0.1,0.4,0.2
			c0.1,0.1,0.2,0.3,0.2,0.4v2.6c0,0.2-0.1,0.3-0.2,0.4c-0.1,0.1-0.3,0.2-0.4,0.2H672c-0.6,0-1.1,0.2-1.5,0.5
			c-0.3,0.4-0.5,0.8-0.5,1.5v6c0,0.2-0.1,0.3-0.2,0.4c-0.1,0.1-0.3,0.2-0.4,0.2h-3.2C666.1,504.2,665.9,504.1,665.8,504z"/>
		<path class="st0" d="M681.5,504c-0.1-0.1-0.2-0.3-0.2-0.4v-11.3c0-0.2,0.1-0.3,0.2-0.4c0.1-0.1,0.3-0.2,0.4-0.2h2.8
			c0.2,0,0.3,0.1,0.4,0.2c0.1,0.1,0.2,0.3,0.2,0.4v0.8c0.4-0.5,0.9-0.9,1.5-1.2c0.6-0.3,1.3-0.5,2.1-0.5c1.8,0,3,0.7,3.6,2.1
			c0.4-0.6,0.9-1.1,1.6-1.5c0.7-0.4,1.4-0.6,2.2-0.6c1.3,0,2.4,0.4,3.2,1.3c0.8,0.9,1.2,2.2,1.2,4v6.8c0,0.2-0.1,0.3-0.2,0.4
			c-0.1,0.1-0.3,0.2-0.4,0.2h-3c-0.2,0-0.3-0.1-0.4-0.2c-0.1-0.1-0.2-0.3-0.2-0.4V497c0-0.7-0.2-1.3-0.5-1.6
			c-0.3-0.3-0.7-0.5-1.3-0.5c-0.5,0-0.9,0.2-1.2,0.5c-0.3,0.3-0.5,0.9-0.5,1.6v6.6c0,0.2-0.1,0.3-0.2,0.4c-0.1,0.1-0.3,0.2-0.4,0.2
			h-3c-0.2,0-0.3-0.1-0.4-0.2c-0.1-0.1-0.2-0.3-0.2-0.4V497c0-0.7-0.2-1.3-0.5-1.6c-0.3-0.3-0.7-0.5-1.2-0.5c-0.5,0-0.9,0.2-1.2,0.5
			c-0.3,0.3-0.5,0.9-0.5,1.6v6.7c0,0.2-0.1,0.3-0.2,0.4s-0.3,0.2-0.4,0.2h-3C681.7,504.2,681.6,504.1,681.5,504z"/>
		<path class="st0" d="M704.7,503c-1.1-0.9-1.7-2.3-1.8-4c0-0.2,0-0.6,0-1.1c0-0.5,0-0.9,0-1.1c0.1-1.7,0.7-3,1.8-4
			c1.1-1,2.6-1.4,4.6-1.4c2,0,3.5,0.5,4.6,1.4s1.7,2.3,1.8,4c0,0.4,0,0.8,0,1.1c0,0.3,0,0.7,0,1.1c-0.1,1.7-0.7,3.1-1.8,4
			c-1.1,0.9-2.6,1.4-4.6,1.4C707.3,504.4,705.7,504,704.7,503z M710.8,500.8c0.3-0.4,0.5-1,0.6-1.9c0-0.2,0-0.5,0-1c0-0.5,0-0.8,0-1
			c0-0.8-0.2-1.5-0.6-1.9c-0.3-0.4-0.8-0.6-1.5-0.6c-0.7,0-1.1,0.2-1.5,0.6c-0.3,0.4-0.5,1-0.6,1.9l0,1l0,1c0,0.8,0.2,1.5,0.6,1.9
			c0.3,0.4,0.8,0.6,1.5,0.6C710,501.4,710.5,501.2,710.8,500.8z"/>
		<path class="st0" d="M721.5,504c-0.1-0.1-0.2-0.3-0.3-0.4l-4.6-11.1c0,0,0-0.1,0-0.2c0-0.2,0.1-0.3,0.2-0.4
			c0.1-0.1,0.2-0.2,0.4-0.2h2.9c0.3,0,0.6,0.2,0.7,0.5l2.6,7.2l2.6-7.2c0-0.1,0.1-0.2,0.2-0.3c0.1-0.1,0.3-0.2,0.5-0.2h2.9
			c0.1,0,0.3,0.1,0.4,0.2c0.1,0.1,0.2,0.2,0.2,0.4l0,0.2l-4.5,11.1c-0.1,0.2-0.2,0.3-0.3,0.4c-0.1,0.1-0.3,0.2-0.5,0.2H722
			C721.8,504.2,721.6,504.2,721.5,504z"/>
		<path class="st0" d="M732.7,502.9c-1.1-1-1.7-2.6-1.7-4.6v-0.7c0.1-1.9,0.7-3.4,1.8-4.5c1.1-1.1,2.6-1.6,4.5-1.6
			c1.4,0,2.5,0.3,3.5,0.8c1,0.6,1.7,1.3,2.1,2.3c0.5,1,0.7,2.1,0.7,3.3v0.6c0,0.2-0.1,0.3-0.2,0.4c-0.1,0.1-0.3,0.2-0.4,0.2h-7.6
			v0.1c0,0.7,0.2,1.3,0.5,1.7c0.3,0.4,0.8,0.7,1.4,0.7c0.4,0,0.7-0.1,0.9-0.2c0.2-0.2,0.5-0.3,0.7-0.6c0.1-0.2,0.3-0.3,0.3-0.3
			s0.2-0.1,0.4-0.1h3.1c0.1,0,0.3,0,0.4,0.1c0.1,0.1,0.2,0.2,0.2,0.3c0,0.4-0.2,0.9-0.7,1.5c-0.5,0.6-1.2,1-2.1,1.4
			c-0.9,0.4-2,0.6-3.2,0.6C735.4,504.4,733.8,503.9,732.7,502.9z M739.2,496.7L739.2,496.7c0-0.8-0.2-1.4-0.5-1.8s-0.8-0.6-1.4-0.6
			c-0.6,0-1.1,0.2-1.4,0.6s-0.5,1-0.5,1.8v0H739.2z"/>
	</g>
	<rect class="st1" width="1280" height="800"/>
	<g>
		<g>
			<path class="st2" d="M1092.7,729.2H-1.7V479.4h1094.4c11.1,0,20.2,9,20.2,20.2V709C1112.9,720.1,1103.8,729.2,1092.7,729.2z"/>
			<path class="st0" d="M1092.6,730.2H-2.8V478.4h1095.4c11.7,0,21.2,9.5,21.2,21.2V709C1113.9,720.7,1104.3,730.2,1092.6,730.2z
				 M-0.7,728.2h1093.4c10.6,0,19.2-8.6,19.2-19.2V499.6c0-10.6-8.6-19.2-19.2-19.2H-0.7V728.2z"/>
		</g>
		<g>
			<g>
				<linearGradient id="SVGID_1_" gradientUnits="userSpaceOnUse" x1="391.517" y1="538.7952" x2="500.517" y2="680.7952">
					<stop  offset="0" style="stop-color:#3279CE"/>
					<stop  offset="0.8762" style="stop-color:#031123"/>
				</linearGradient>
				<circle class="st3" cx="440.6" cy="602.7" r="72"/>
				<path class="st0" d="M440.6,677.7c-41.4,0-75-33.6-75-75s33.6-75,75-75s75,33.6,75,75S481.9,677.7,440.6,677.7z M440.6,533.7
					c-38,0-69,31-69,69s31,69,69,69s69-31,69-69S478.6,533.7,440.6,533.7z"/>
			</g>
			<g>
				<g>
					<path class="st0" d="M386.2,617.9c-0.2-0.2-0.2-0.4-0.2-0.7l4.1-19.5h-6.7c-0.3,0-0.5-0.1-0.6-0.3c-0.2-0.2-0.2-0.4-0.2-0.7
						l0.9-4.3c0.1-0.3,0.2-0.5,0.4-0.7c0.2-0.2,0.5-0.3,0.8-0.3h20.6c0.3,0,0.5,0.1,0.6,0.3c0.2,0.2,0.2,0.4,0.2,0.7l-0.9,4.3
						c-0.1,0.3-0.2,0.5-0.4,0.7c-0.2,0.2-0.5,0.3-0.7,0.3h-6.7l-4.2,19.5c-0.1,0.3-0.2,0.5-0.4,0.7c-0.2,0.2-0.5,0.3-0.7,0.3h-5.3
						C386.5,618.2,386.3,618.1,386.2,617.9z"/>
					<path class="st0" d="M403.6,616.9c-1.2-1.2-1.7-2.8-1.7-4.9c0-0.9,0.1-1.6,0.2-2.3l0.6-2.7c0.7-2.8,1.9-5,3.6-6.6
						c1.6-1.6,3.7-2.3,6.3-2.3c1.4,0,2.5,0.2,3.3,0.6c0.8,0.4,1.5,1,2,1.7l0.2-0.9c0.1-0.3,0.2-0.5,0.4-0.7c0.2-0.2,0.5-0.3,0.7-0.3
						h4.5c0.3,0,0.5,0.1,0.6,0.3c0.2,0.2,0.2,0.4,0.2,0.7l-3.8,17.9c-0.1,0.3-0.2,0.5-0.4,0.7c-0.2,0.2-0.5,0.3-0.7,0.3h-4.5
						c-0.3,0-0.5-0.1-0.6-0.3c-0.2-0.2-0.2-0.4-0.2-0.7l0.3-1.2c-0.9,0.8-1.8,1.5-2.7,1.9c-0.9,0.4-2,0.6-3.3,0.6
						C406.4,618.6,404.8,618,403.6,616.9z M414,612.3c0.7-0.7,1.2-1.6,1.5-2.6c0.3-1.1,0.5-2,0.6-2.9c0.1-0.4,0.1-0.7,0.1-0.9
						c0-0.8-0.2-1.4-0.6-1.9c-0.4-0.5-1.1-0.7-1.9-0.7c-1.1,0-2,0.3-2.6,1c-0.6,0.7-1.1,1.6-1.5,2.8c-0.3,0.9-0.4,1.6-0.5,2.4
						c-0.1,0.5-0.1,0.9-0.1,1.3c0,0.8,0.2,1.4,0.5,1.9c0.4,0.4,1,0.6,1.8,0.6C412.4,613.3,413.4,613,414,612.3z"/>
					<path class="st0" d="M429.9,617.7c-1.3-0.6-2.3-1.4-3-2.5c-0.7-1.1-1.1-2.4-1.1-3.9c0-0.5,0-1,0.1-1.5l0.6-3.1
						c0.7-2.8,2.1-4.9,4.1-6.5c2-1.5,4.4-2.3,7.4-2.3c2,0,3.7,0.4,5.1,1.1c1.3,0.7,2.3,1.6,2.9,2.6c0.6,1,0.9,2,0.9,2.9l0,0.4
						c0,0.3-0.1,0.5-0.4,0.7c-0.2,0.2-0.5,0.3-0.7,0.3h-5.2c-0.5,0-0.8-0.3-0.9-0.8c-0.1-0.7-0.3-1.3-0.6-1.6s-0.9-0.5-1.6-0.5
						c-2,0-3.3,1.3-4,3.9c-0.3,1.4-0.5,2.3-0.6,2.7c-0.1,0.7-0.2,1.2-0.2,1.4c0,0.8,0.2,1.5,0.6,1.8c0.4,0.4,1,0.6,1.7,0.6
						c0.7,0,1.4-0.2,1.9-0.5c0.5-0.3,1-0.8,1.4-1.6c0.2-0.3,0.3-0.5,0.5-0.6c0.2-0.1,0.4-0.2,0.7-0.2h5.2c0.3,0,0.5,0.1,0.6,0.3
						c0.1,0.2,0.2,0.4,0.1,0.7c-0.3,0.9-0.8,1.8-1.6,2.9c-0.8,1.1-2.1,2-3.7,2.8c-1.6,0.8-3.6,1.2-5.9,1.2
						C432.6,618.6,431.2,618.3,429.9,617.7z"/>
					<path class="st0" d="M447.7,617.9c-0.1-0.2-0.2-0.4-0.1-0.7l5.3-25.1c0.1-0.3,0.2-0.5,0.4-0.7c0.2-0.2,0.5-0.3,0.7-0.3h4.7
						c0.3,0,0.5,0.1,0.6,0.3c0.1,0.2,0.2,0.4,0.1,0.7l-2.7,12.6l6.1-5.7c0.3-0.2,0.5-0.4,0.7-0.5c0.2-0.1,0.4-0.2,0.7-0.2h5.7
						c0.2,0,0.4,0.1,0.5,0.2s0.2,0.3,0.2,0.4c0,0.3-0.2,0.6-0.5,0.9l-8.2,7.8l5.4,9.1c0.1,0.1,0.2,0.3,0.2,0.5
						c0,0.2-0.1,0.4-0.3,0.6c-0.2,0.2-0.4,0.3-0.7,0.3h-5.3c-0.5,0-0.9-0.2-1.1-0.6l-4.6-7.7l-1.5,7.3c-0.1,0.3-0.2,0.5-0.4,0.7
						c-0.2,0.2-0.5,0.3-0.7,0.3h-4.7C448.1,618.2,447.9,618.1,447.7,617.9z"/>
					<path class="st0" d="M470.3,617.9c-0.1-0.2-0.2-0.4-0.1-0.7l5.3-25.1c0-0.3,0.2-0.5,0.4-0.7c0.2-0.2,0.5-0.3,0.7-0.3h4.8
						c0.3,0,0.5,0.1,0.6,0.3c0.2,0.2,0.2,0.4,0.2,0.7l-5.4,25.1c-0.1,0.3-0.2,0.5-0.4,0.7c-0.2,0.2-0.5,0.3-0.7,0.3H471
						C470.7,618.2,470.5,618.1,470.3,617.9z"/>
					<path class="st0" d="M484.7,616.8c-1.4-1.2-2.1-3-2.1-5.3c0-0.9,0.1-1.7,0.3-2.6l0.3-1.2c0.7-3,2.2-5.4,4.3-7.1
						s4.7-2.5,7.7-2.5c2.7,0,4.8,0.7,6.1,2c1.4,1.3,2.1,3.1,2.1,5.4c0,0.8-0.1,1.7-0.3,2.7l-0.2,1c-0.1,0.3-0.2,0.5-0.5,0.7
						c-0.2,0.2-0.5,0.3-0.8,0.3h-12l0,0.2c-0.1,0.4-0.1,0.8-0.1,1.2c0,0.8,0.2,1.4,0.6,1.9c0.4,0.5,1,0.7,1.7,0.7
						c0.6,0,1.1-0.1,1.5-0.4s0.8-0.6,1.2-0.9c0.3-0.3,0.5-0.4,0.7-0.5s0.4-0.1,0.7-0.1h5c0.2,0,0.4,0.1,0.5,0.2s0.2,0.3,0.1,0.6
						c-0.2,0.7-0.7,1.5-1.7,2.3c-0.9,0.9-2.2,1.6-3.7,2.2c-1.6,0.6-3.3,0.9-5.2,0.9C488.1,618.6,486.1,618,484.7,616.8z
						 M496.4,606.3L496.4,606.3c0.1-0.5,0.2-0.9,0.2-1.4c0-0.8-0.2-1.4-0.6-1.9s-1-0.7-1.8-0.7c-1,0-1.8,0.3-2.5,1
						c-0.7,0.7-1.1,1.6-1.4,2.8v0.1H496.4z"/>
				</g>
				<path class="st0" d="M386.5,595.1h-18c-0.6,0-1-0.4-1-1s0.4-1,1-1h18c0.6,0,1,0.4,1,1S387.1,595.1,386.5,595.1z"/>
				<path class="st0" d="M384.6,602.7h-11.2c-0.6,0-1-0.4-1-1s0.4-1,1-1h11.2c0.6,0,1,0.4,1,1S385.1,602.7,384.6,602.7z"/>
				<path class="st0" d="M382.7,608.2h-7c-0.6,0-1-0.4-1-1s0.4-1,1-1h7c0.6,0,1,0.4,1,1S383.2,608.2,382.7,608.2z"/>
				<path class="st0" d="M455.1,595.1h-21c-0.6,0-1-0.4-1-1s0.4-1,1-1h21c0.6,0,1,0.4,1,1S455.7,595.1,455.1,595.1z"/>
				<path class="st0" d="M482.8,588.8h-66.6c-0.6,0-1-0.4-1-1s0.4-1,1-1h66.6c0.6,0,1,0.4,1,1S483.4,588.8,482.8,588.8z"/>
			</g>
			<path class="st0" d="M469.6,632.4H403c-0.6,0-1-0.4-1-1s0.4-1,1-1h66.6c0.6,0,1,0.4,1,1S470.2,632.4,469.6,632.4z"/>
		</g>
		<g>
			<g>
				<linearGradient id="SVGID_2_" gradientUnits="userSpaceOnUse" x1="599.9608" y1="538.7952" x2="708.9608" y2="680.7952">
					<stop  offset="0" style="stop-color:#3279CE"/>
					<stop  offset="1" style="stop-color:#031123"/>
				</linearGradient>
				<circle class="st4" cx="649" cy="602.7" r="72"/>
				<path class="st0" d="M649,677.7c-41.4,0-75-33.6-75-75s33.6-75,75-75c41.4,0,75,33.6,75,75S690.4,677.7,649,677.7z M649,533.7
					c-38,0-69,31-69,69s31,69,69,69s69-31,69-69S687,533.7,649,533.7z"/>
			</g>
			<g>
				<g>
					<g>
						<path class="st0" d="M635.1,580.8c2.4,0.5,3.5,2.4,3.5,5.9c0,1-0.1,2.1-0.3,3.2c-0.8,5.1-2.6,9.5-5.2,13.2
							c-2.6,3.7-6.2,6.9-10.7,9.5l-6.7,3.9l-2.3,14.1c-0.1,0.5-0.2,0.9-0.5,1.4c-0.3,0.4-0.6,0.8-1,1l-7.4,4.2
							c-0.4,0.2-0.7,0.3-0.9,0.1c-0.2-0.2-0.3-0.5-0.2-0.9l7-42.5c0.1-0.5,0.3-0.9,0.6-1.4c0.3-0.5,0.7-0.8,1-1l13.8-8
							C629.6,581.2,632.7,580.3,635.1,580.8z M628.3,595.6c0.1-0.9,0.2-1.6,0.2-1.9c0-2.3-1.2-2.7-3.7-1.2l-5.9,3.4l-1.9,11.3
							l5.7-3.3c1.4-0.8,2.6-1.9,3.6-3.4C627.3,599.1,628,597.5,628.3,595.6"/>
					</g>
					<g>
						<path class="st0" d="M659.9,581.7c0.2,0.1,0.2,0.4,0.2,0.7l-4,24.3c0,0.4-0.2,0.7-0.4,1.1c-0.2,0.4-0.5,0.6-0.8,0.8l-4.8,2.8
							c-0.3,0.2-0.5,0.2-0.7,0.1c-0.2-0.1-0.2-0.4-0.2-0.7l0.3-1.6c-0.9,1.6-1.9,2.9-2.8,3.9c-1,1.1-2.1,2-3.6,2.8
							c-2.3,1.3-4,1.6-5.3,0.9c-1.2-0.7-1.9-2.4-1.9-5c0-1.1,0.1-2,0.2-2.9l0.6-3.7c0.8-3.9,2-7.3,3.8-10.3c1.8-2.9,4-5.2,6.7-6.8
							c1.5-0.9,2.7-1.3,3.6-1.3c0.9,0,1.6,0.3,2.2,0.8l0.2-1.3c0.1-0.4,0.2-0.7,0.4-1.1c0.2-0.3,0.5-0.6,0.8-0.8l4.8-2.8
							C659.5,581.6,659.7,581.6,659.9,581.7z M651.1,596.7c0.1-0.5,0.1-0.9,0.1-1.1c0-1-0.2-1.6-0.7-1.9c-0.4-0.3-1.1-0.2-2.1,0.4
							c-1.2,0.7-2.1,1.6-2.8,2.8c-0.7,1.2-1.2,2.7-1.6,4.3c-0.3,1.2-0.4,2.3-0.5,3.2c-0.1,0.6-0.1,1.2-0.1,1.6c0,1,0.2,1.7,0.6,2
							c0.4,0.3,1,0.2,1.9-0.3c1.2-0.7,2.2-1.7,2.9-3c0.7-1.3,1.3-2.7,1.6-4.2C650.7,599.1,650.9,597.8,651.1,596.7"/>
					</g>
					<g>
						<path class="st0" d="M671.5,578.9c1.6-0.9,2.9-1.4,4-1.5c1.1-0.1,1.9,0.1,2.5,0.5c0.6,0.5,0.8,1.1,0.8,1.8l0,0.3
							c0,0.3-0.1,0.6-0.3,0.9c-0.2,0.3-0.4,0.5-0.6,0.7l-3.9,2.2c-0.2,0.1-0.4,0.2-0.5,0.1c-0.3,0-0.5,0-0.8-0.2
							c-0.3-0.1-0.6-0.2-0.9-0.2c-0.3,0-0.7,0.1-1.2,0.4c-0.7,0.4-1.2,0.9-1.6,1.5c-0.4,0.6-0.6,1.2-0.6,1.8c0,0.4,0.3,0.6,0.8,0.6
							c0.5,0,1.6-0.3,3.1-0.8c1.9-0.7,3.3-0.8,4.2-0.4c0.9,0.4,1.3,1.3,1.3,2.6c0,0.4,0,0.8-0.1,1.3c-0.4,2.2-1.4,4.5-3.2,6.7
							s-4.1,4.1-6.9,5.8c-1.8,1-3.2,1.6-4.4,1.7c-1.1,0.1-2-0.1-2.5-0.5c-0.5-0.5-0.8-1.1-0.8-1.8l0-0.4c0-0.3,0.1-0.6,0.3-0.9
							c0.2-0.3,0.4-0.5,0.6-0.7l4.2-2.5c0.2-0.1,0.3-0.1,0.3,0c0.2,0,0.4,0.1,0.7,0.2c0.4,0.2,0.7,0.2,1.1,0.2
							c0.3,0,0.8-0.2,1.3-0.5c0.6-0.4,1.2-0.8,1.6-1.4c0.5-0.5,0.7-1.1,0.8-1.7c0-0.1,0-0.3,0-0.5c0-0.5-0.3-0.7-0.8-0.7
							c-0.5,0-1.6,0.3-3.1,0.8c-3.3,1.1-5,0.4-5-2.2c0-0.5,0-1,0.1-1.4c0.2-1.2,0.7-2.6,1.5-4c0.8-1.5,1.9-2.9,3.2-4.3
							S669.8,579.8,671.5,578.9z"/>
					</g>
					<g>
						<path class="st0" d="M689.7,571.8c1.3-0.7,2.4-1.2,3.3-1.3c0.9-0.1,1.6,0,2,0.4c0.4,0.4,0.7,0.9,0.7,1.4l0,0.3
							c0,0.2-0.1,0.5-0.3,0.7c-0.2,0.3-0.3,0.4-0.5,0.5l-3.1,1.8c-0.2,0.1-0.3,0.1-0.4,0.1c-0.2,0-0.4,0-0.6-0.1
							c-0.3-0.1-0.5-0.2-0.8-0.2c-0.2,0-0.6,0.1-0.9,0.3c-0.5,0.3-1,0.7-1.3,1.2c-0.3,0.5-0.5,1-0.5,1.4c0,0.3,0.2,0.5,0.7,0.5
							c0.4,0,1.3-0.2,2.5-0.7c1.6-0.6,2.7-0.7,3.4-0.3s1.1,1,1.1,2.1c0,0.3,0,0.7-0.1,1c-0.3,1.8-1.2,3.6-2.6,5.4
							c-1.4,1.8-3.3,3.4-5.6,4.7c-1.4,0.8-2.6,1.3-3.6,1.4c-0.9,0.1-1.6,0-2-0.4c-0.4-0.4-0.6-0.9-0.6-1.5l0-0.3
							c0-0.3,0.1-0.5,0.3-0.8c0.2-0.3,0.3-0.4,0.5-0.5l3.4-2c0.1-0.1,0.2-0.1,0.3,0c0.1,0,0.3,0.1,0.5,0.1c0.3,0.1,0.6,0.2,0.9,0.2
							c0.3,0,0.6-0.1,1.1-0.4c0.5-0.3,1-0.7,1.3-1.1c0.4-0.4,0.6-0.9,0.7-1.3c0-0.1,0-0.2,0-0.4c0-0.4-0.2-0.6-0.7-0.6
							c-0.4,0-1.3,0.2-2.5,0.7c-2.7,0.9-4.1,0.3-4.1-1.8c0-0.4,0-0.8,0.1-1.2c0.2-1,0.6-2.1,1.2-3.3c0.6-1.2,1.5-2.3,2.6-3.5
							C687.1,573.6,688.3,572.6,689.7,571.8z"/>
					</g>
				</g>
				<path class="st0" d="M635.9,633.7c-0.4,0-0.8-0.2-1-0.5c-0.4-0.6-0.2-1.3,0.3-1.7l55.9-37.6c0.6-0.4,1.3-0.2,1.7,0.3
					c0.4,0.6,0.2,1.3-0.3,1.7l-55.9,37.6C636.3,633.6,636.1,633.7,635.9,633.7z"/>
				<path class="st0" d="M586.3,591.8c-0.5,0-1-0.3-1.2-0.8c-0.2-0.7,0.1-1.4,0.8-1.6l42.2-14c0.4-0.1,9.8-3.3,14.6,0.1
					c1.9,1.3,2.8,3.4,2.8,6.2c0,0.7-0.6,1.2-1.2,1.2s-1.2-0.6-1.2-1.2c0-2-0.6-3.3-1.8-4.2c-3.2-2.3-10-0.6-12.4,0.2l-42.2,14.1
					C586.6,591.7,586.4,591.8,586.3,591.8z"/>
				<path class="st0" d="M594.3,596.4c-0.5,0-1-0.3-1.2-0.8c-0.2-0.6,0.1-1.4,0.7-1.6l10.8-3.9c0.6-0.2,1.4,0.1,1.6,0.7
					c0.2,0.6-0.1,1.4-0.7,1.6l-10.8,3.9C594.6,596.4,594.5,596.4,594.3,596.4z"/>
				<path class="st0" d="M617,659.7c-0.4,0-0.7-0.2-1-0.5c-0.4-0.5-0.3-1.3,0.2-1.7l52.4-41.2c0.5-0.4,1.3-0.3,1.7,0.2
					c0.4,0.5,0.3,1.3-0.2,1.7l-52.4,41.2C617.6,659.6,617.3,659.7,617,659.7z"/>
				<path class="st0" d="M669.4,575.2c-0.5,0-0.9-0.3-1.1-0.7c-0.3-0.6,0-1.4,0.6-1.6c0.1,0,11.2-4.8,22.4-9.3
					c3.2-1.3,5.6-1.2,7.3,0.3c3.2,2.7,1.9,9,1.8,9.7c-0.1,0.7-0.8,1.1-1.5,0.9c-0.7-0.1-1.1-0.8-1-1.5c0.3-1.4,0.8-5.8-0.9-7.2
					c-1.2-1-3.2-0.5-4.8,0.2c-11.2,4.4-22.2,9.2-22.3,9.2C669.8,575.1,669.6,575.2,669.4,575.2z"/>
			</g>
		</g>
		<g>
			<g>
				<linearGradient id="SVGID_3_" gradientUnits="userSpaceOnUse" x1="808.9302" y1="538.7952" x2="917.9302" y2="680.7952">
					<stop  offset="0" style="stop-color:#3279CE"/>
					<stop  offset="1" style="stop-color:#031123"/>
				</linearGradient>
				<circle class="st5" cx="858" cy="602.7" r="72"/>
				<path class="st0" d="M858,677.7c-41.4,0-75-33.6-75-75s33.6-75,75-75s75,33.6,75,75S899.3,677.7,858,677.7z M858,533.7
					c-38,0-69,31-69,69s31,69,69,69s69-31,69-69S896,533.7,858,533.7z"/>
			</g>
			<g>
				<path class="st0" d="M804.3,613.5c-0.2-0.2-0.4-0.4-0.4-0.7l-4.9-24.7c-0.1-0.3,0-0.5,0.2-0.7c0.2-0.2,0.4-0.3,0.8-0.3h6.4
					c0.3,0,0.6,0.1,0.9,0.3c0.3,0.2,0.4,0.4,0.5,0.7l1.5,9H820l-1.2-9c0-0.3,0.1-0.5,0.3-0.7c0.2-0.2,0.5-0.3,0.8-0.3h6.4
					c0.3,0,0.6,0.1,0.9,0.3c0.3,0.2,0.4,0.4,0.4,0.7l2.5,24.7c0,0.3-0.1,0.5-0.3,0.7c-0.2,0.2-0.4,0.3-0.8,0.3h-5.8
					c-0.3,0-0.6-0.1-0.8-0.3c-0.2-0.2-0.4-0.4-0.4-0.7l-1.2-9.3h-10.4l1.6,9.3c0,0.3,0,0.5-0.2,0.7c-0.2,0.2-0.4,0.3-0.7,0.3h-5.8
					C804.8,613.7,804.5,613.6,804.3,613.5z"/>
				<path class="st0" d="M837.6,611.6c-2.1-1.7-3.4-4.1-3.7-7.2l-0.1-1.2c-0.1-3,0.8-5.4,2.8-7.1c2-1.7,4.8-2.5,8.5-2.5
					c2.6,0,4.9,0.4,6.7,1.3c1.8,0.9,3.2,2.1,4.1,3.6c0.9,1.5,1.3,3.3,1.3,5.2l0,1c0,0.3-0.1,0.5-0.3,0.7c-0.2,0.2-0.5,0.3-0.8,0.3
					H842l0,0.2c0.1,1.1,0.5,2.1,1.1,2.8c0.6,0.7,1.5,1,2.5,1c0.7,0,1.2-0.1,1.7-0.4c0.4-0.2,0.8-0.6,1.2-0.9
					c0.3-0.3,0.5-0.4,0.6-0.5c0.2-0.1,0.4-0.1,0.8-0.1h5.7c0.3,0,0.5,0.1,0.7,0.2c0.2,0.1,0.3,0.3,0.3,0.5c0,0.7-0.4,1.4-1.3,2.3
					c-0.8,0.9-2.1,1.6-3.7,2.3c-1.6,0.6-3.5,1-5.7,1C842.5,614.1,839.7,613.3,837.6,611.6z M848.9,601.8L848.9,601.8
					c0-1.3-0.4-2.2-1-2.9c-0.7-0.7-1.6-1-2.7-1c-1.1,0-2,0.3-2.6,1c-0.6,0.7-0.8,1.6-0.8,2.8l0,0.1H848.9z"/>
				<path class="st0" d="M863.5,613.3c-1.2-0.5-2.2-1.2-2.9-2.1c-0.7-0.9-1-1.9-1-3c0-1.7,0.8-3.1,2.5-4.2c1.7-1.1,4-1.8,7-2.2
					l5.6-0.7l0-0.5c0.1-0.9-0.1-1.6-0.6-2.1c-0.4-0.4-1.2-0.6-2.3-0.6c-0.6,0-1.1,0.1-1.5,0.3c-0.4,0.2-0.9,0.4-1.4,0.8
					c-0.4,0.3-0.8,0.5-1.1,0.6c-0.1,0.2-0.3,0.3-0.5,0.3h-5.2c-0.3,0-0.5-0.1-0.7-0.2c-0.2-0.2-0.3-0.4-0.2-0.6
					c0-0.7,0.5-1.5,1.2-2.3c0.8-0.8,2-1.6,3.6-2.2c1.6-0.6,3.6-0.9,6-0.9c3.8,0,6.5,0.7,8.3,2.1c1.7,1.4,2.5,3.2,2.3,5.6l-1,11.5
					c0,0.3-0.1,0.5-0.4,0.7c-0.2,0.2-0.5,0.3-0.8,0.3h-5.2c-0.3,0-0.5-0.1-0.7-0.3c-0.2-0.2-0.3-0.4-0.3-0.7l0.1-1.3
					c-0.7,0.8-1.6,1.4-2.7,1.9c-1.1,0.5-2.5,0.7-4,0.7C866.1,614.1,864.8,613.8,863.5,613.3z M873.1,608.5c0.8-0.7,1.3-1.8,1.4-3.2
					l0-0.5l-3.7,0.5c-2.5,0.4-3.7,1.2-3.8,2.3c0,0.6,0.2,1.1,0.8,1.4c0.6,0.4,1.2,0.5,2.1,0.5C871.2,609.6,872.3,609.2,873.1,608.5z
					"/>
				<path class="st0" d="M888.3,611.8c-1.4-1.5-2.1-3.7-1.9-6.6l0.1-1.3l0.2-1.4c0.4-2.8,1.5-4.9,3.4-6.5c1.9-1.6,4.3-2.4,7.2-2.4
					c2.7,0,4.8,0.7,6.3,2.2l1.3-8.1c0-0.3,0.2-0.5,0.5-0.7c0.3-0.2,0.5-0.3,0.9-0.3h6c0.3,0,0.6,0.1,0.8,0.3
					c0.2,0.2,0.3,0.4,0.2,0.7l-4.6,25.1c-0.1,0.3-0.2,0.5-0.4,0.7c-0.2,0.2-0.5,0.3-0.8,0.3h-5.1c-0.3,0-0.5-0.1-0.7-0.3
					c-0.2-0.2-0.3-0.4-0.2-0.7l0.2-1.2c-1.8,1.7-4.1,2.5-7,2.5C891.8,614.1,889.7,613.3,888.3,611.8z M900.7,607.8
					c0.7-0.7,1.2-1.6,1.4-2.6c0.2-0.7,0.3-1.2,0.3-1.4c0-0.3,0.1-0.7,0.1-1.4c0.1-1-0.1-1.8-0.7-2.5c-0.5-0.6-1.4-1-2.7-1
					c-1.3,0-2.4,0.3-3,1c-0.7,0.7-1.1,1.6-1.4,2.8l-0.2,1.2l-0.1,1.2c-0.1,1.2,0.1,2.1,0.6,2.8c0.5,0.7,1.4,1,2.7,1
					C899,608.8,899.9,608.5,900.7,607.8z"/>
				<path class="st0" d="M823,642.7c-1.5-0.6-2.8-1.4-3.7-2.4c-0.9-1-1.5-2-1.7-3.2c0-0.2,0-0.4,0.1-0.5c0.1-0.1,0.3-0.2,0.5-0.2
					h4.4c0.3,0,0.5,0,0.7,0.1c0.2,0.1,0.4,0.2,0.6,0.4c0.4,0.5,0.9,0.9,1.5,1.3c0.6,0.3,1.5,0.5,2.5,0.5c1.2,0,2.1-0.2,2.6-0.5
					c0.6-0.4,0.9-0.8,0.8-1.5c0-0.4-0.3-0.8-0.6-1.1c-0.4-0.3-0.9-0.5-1.7-0.8c-0.8-0.2-1.8-0.5-3.2-0.8c-2.8-0.5-4.9-1.3-6.4-2.3
					c-1.5-1-2.4-2.5-2.7-4.5c-0.2-1.3,0-2.5,0.6-3.5c0.6-1,1.7-1.8,3-2.4c1.4-0.6,3.1-0.9,5-0.9c2.1,0,3.9,0.3,5.4,1
					c1.6,0.7,2.8,1.5,3.7,2.4c0.9,1,1.4,1.9,1.5,2.9c0,0.2,0,0.4-0.2,0.5c-0.1,0.1-0.3,0.2-0.5,0.2h-4.8c-0.5,0-0.9-0.2-1.2-0.6
					c-0.2-0.4-0.6-0.8-1.2-1.1c-0.6-0.3-1.3-0.5-2.2-0.5c-1,0-1.7,0.2-2.2,0.5c-0.5,0.3-0.7,0.8-0.6,1.4c0.1,0.6,0.5,1.1,1.2,1.5
					c0.7,0.4,2,0.7,3.9,1.1c2.2,0.4,3.9,0.8,5.2,1.4c1.3,0.5,2.3,1.2,2.9,2.1c0.7,0.9,1,2,1.2,3.3c0.1,1.5-0.2,2.7-1,3.8
					c-0.7,1.1-1.8,1.9-3.3,2.4c-1.4,0.6-3.1,0.8-5,0.8C826.3,643.6,824.5,643.3,823,642.7z"/>
				<path class="st0" d="M841.1,643.1c-0.2-0.1-0.3-0.3-0.3-0.6l-1.5-21.1c0-0.2,0.1-0.4,0.2-0.6c0.2-0.1,0.4-0.2,0.6-0.2h4.7
					c0.3,0,0.5,0.1,0.7,0.2c0.2,0.1,0.3,0.3,0.3,0.6l0.3,7.1c1.3-1.5,3-2.2,5.3-2.2c1.3,0,2.5,0.3,3.5,0.8c1.1,0.6,1.9,1.4,2.5,2.5
					c0.6,1.1,0.9,2.4,0.9,3.9l0,8.9c0,0.2-0.1,0.4-0.2,0.6c-0.2,0.1-0.4,0.2-0.6,0.2h-4.4c-0.2,0-0.4-0.1-0.6-0.2
					c-0.2-0.2-0.2-0.3-0.3-0.6l-0.2-8.7c0-0.9-0.3-1.7-0.8-2.2c-0.5-0.5-1.2-0.8-2.1-0.8c-0.9,0-1.6,0.3-2.1,0.8
					c-0.5,0.5-0.7,1.3-0.7,2.2l0.4,8.7c0,0.2-0.1,0.4-0.2,0.6c-0.2,0.1-0.3,0.2-0.6,0.2h-4.3C841.5,643.3,841.3,643.2,841.1,643.1z"
					/>
				<path class="st0" d="M863.7,641.8c-1.4-1.2-2.2-3-2.3-5.3c0-0.3,0-0.8,0-1.4c0-0.7,0-1.2,0.1-1.4c0.2-2.3,1-4,2.6-5.3
					c1.6-1.3,3.8-1.9,6.6-1.9c2.8,0,4.9,0.6,6.4,1.9c1.5,1.3,2.2,3,2.1,5.3c0,0.6,0,1-0.1,1.4c0,0.4-0.1,0.9-0.2,1.4
					c-0.3,2.3-1.3,4.1-2.8,5.3c-1.5,1.2-3.6,1.9-6.3,1.9C867.1,643.6,865.1,643,863.7,641.8z M872,638.8c0.5-0.5,0.8-1.4,0.9-2.5
					c0-0.2,0.1-0.6,0.1-1.3c0-0.6,0.1-1.1,0-1.3c0-1.1-0.2-1.9-0.6-2.5c-0.4-0.6-1.1-0.8-2-0.8c-0.9,0-1.6,0.3-2.1,0.8
					c-0.5,0.6-0.8,1.4-0.9,2.5l-0.1,1.3l0,1.3c0,1.1,0.2,2,0.7,2.5c0.4,0.5,1.1,0.8,2,0.8C870.9,639.6,871.6,639.3,872,638.8z"/>
				<path class="st0" d="M884,637l0.6-5.9H882c-0.2,0-0.4-0.1-0.6-0.2c-0.2-0.2-0.2-0.3-0.2-0.6l0.2-2.8c0-0.2,0.1-0.4,0.3-0.6
					c0.2-0.1,0.4-0.2,0.6-0.2h2.7l0.5-5.3c0-0.2,0.1-0.4,0.3-0.6c0.2-0.1,0.4-0.2,0.6-0.2h4.3c0.3,0,0.5,0.1,0.6,0.2
					c0.1,0.1,0.2,0.3,0.2,0.6l-0.7,5.3h4.3c0.3,0,0.5,0.1,0.6,0.2c0.1,0.1,0.2,0.3,0.2,0.6l-0.4,2.8c0,0.2-0.1,0.4-0.3,0.6
					c-0.2,0.1-0.4,0.2-0.7,0.2h-4.2l-0.7,5.4c-0.1,0.7,0,1.3,0.2,1.7c0.2,0.4,0.7,0.6,1.3,0.6h2.6c0.2,0,0.4,0.1,0.6,0.2
					c0.1,0.2,0.2,0.4,0.1,0.6l-0.4,2.9c0,0.2-0.1,0.4-0.3,0.6c-0.2,0.2-0.4,0.2-0.6,0.2h-3C885.7,643.3,883.6,641.2,884,637z"/>
			</g>
			<path class="st0" d="M894.4,583.2c-0.2,0-0.5-0.1-0.7-0.2c-34.3-23.3-75-2.1-75.4-1.9c-0.6,0.3-1.4,0.1-1.7-0.5
				c-0.3-0.6-0.1-1.4,0.5-1.7c0.4-0.2,42.4-22.1,77.9,2.1c0.6,0.4,0.7,1.2,0.3,1.7C895.2,583,894.8,583.2,894.4,583.2z"/>
			<path class="st0" d="M888.6,569.7c-0.2,0-0.4,0-0.6-0.1c-26.7-14.2-59.2-2.2-59.5-2.1c-0.6,0.2-1.4-0.1-1.6-0.7
				c-0.2-0.6,0.1-1.4,0.7-1.6c0.3-0.1,33.9-12.5,61.6,2.2c0.6,0.3,0.8,1.1,0.5,1.7C889.5,569.4,889.1,569.7,888.6,569.7z"/>
			<path class="st0" d="M869.3,555.3c-0.1,0-0.3,0-0.4-0.1c-9.2-3-19.5,0-19.6,0c-0.7,0.2-1.3-0.2-1.5-0.8s0.2-1.3,0.8-1.5
				c0.5-0.1,11.2-3.2,21.1,0c0.7,0.2,1,0.9,0.8,1.6C870.3,555,869.8,555.3,869.3,555.3z"/>
			<path class="st0" d="M880.1,587c-0.2,0-0.3,0-0.5-0.1c-24.6-11.1-44.6-0.2-44.8-0.1c-0.6,0.3-1.4,0.1-1.7-0.5s-0.1-1.4,0.5-1.7
				c0.9-0.5,21.2-11.7,47.1-0.1c0.6,0.3,0.9,1,0.6,1.6C881,586.7,880.5,587,880.1,587z"/>
		</g>
		<g>
			<path class="st6" d="M509.7,534.8v1c0,0.2-0.1,0.4-0.2,0.5s-0.3,0.2-0.6,0.2h-3.7c-0.2,0-0.4-0.1-0.6-0.2
				c-0.2-0.1-0.2-0.3-0.2-0.6v-20.5c0-0.2,0.1-0.4,0.2-0.6c0.2-0.1,0.3-0.2,0.6-0.2h4c0.2,0,0.4,0.1,0.6,0.2
				c0.1,0.1,0.2,0.3,0.2,0.6v6.6c1.1-1.2,2.6-1.8,4.5-1.8c2,0,3.6,0.6,4.7,1.9c1.2,1.3,1.8,3.1,1.9,5.3c0,0.3,0,0.6,0,1.1
				c0,0.5,0,0.8,0,1.1c-0.1,2.3-0.7,4.1-1.8,5.4s-2.7,1.9-4.7,1.9C512.4,536.8,510.8,536.1,509.7,534.8z M514.7,531.7
				c0.4-0.5,0.6-1.3,0.7-2.3c0-0.2,0-0.5,0-1c0-0.4,0-0.8,0-1c-0.1-1-0.3-1.7-0.7-2.3c-0.4-0.5-1.1-0.8-2-0.8c-0.9,0-1.5,0.3-2,0.8
				c-0.4,0.5-0.7,1.2-0.7,2c0,0.3,0,0.7,0,1.1c0,0.5,0,0.9,0,1.2c0,0.9,0.3,1.6,0.7,2.2s1.1,0.9,2,0.9
				C513.6,532.5,514.3,532.2,514.7,531.7z"/>
			<path class="st6" d="M525.7,534.8c-1.4-1.4-2.2-3.3-2.2-5.9v-1c0.1-2.5,0.8-4.4,2.3-5.8c1.4-1.4,3.4-2.1,5.9-2.1
				c1.8,0,3.3,0.4,4.5,1.1c1.2,0.7,2.1,1.7,2.8,2.9c0.6,1.2,0.9,2.7,0.9,4.3v0.8c0,0.2-0.1,0.4-0.2,0.6c-0.2,0.2-0.3,0.2-0.6,0.2
				h-9.8v0.2c0,0.9,0.2,1.7,0.7,2.2c0.4,0.6,1,0.9,1.8,0.9c0.5,0,0.9-0.1,1.2-0.3c0.3-0.2,0.6-0.5,0.9-0.8c0.2-0.2,0.3-0.3,0.4-0.4
				s0.3-0.1,0.5-0.1h4.1c0.2,0,0.3,0.1,0.5,0.2c0.1,0.1,0.2,0.3,0.2,0.4c0,0.5-0.3,1.2-0.9,1.9c-0.6,0.7-1.5,1.3-2.7,1.9
				s-2.5,0.8-4.1,0.8C529.1,536.8,527.1,536.1,525.7,534.8z M534.1,526.8L534.1,526.8c0-1.1-0.2-1.8-0.7-2.4s-1-0.8-1.8-0.8
				c-0.8,0-1.4,0.3-1.8,0.8c-0.4,0.5-0.6,1.3-0.6,2.3v0.1H534.1z"/>
			<path class="st6" d="M544.5,536.2c-0.9-0.4-1.6-1-2.1-1.8c-0.5-0.7-0.8-1.6-0.8-2.4c0-1.4,0.6-2.5,1.8-3.4
				c1.2-0.9,2.8-1.5,4.8-1.8l3.8-0.6v-0.4c0-0.8-0.2-1.3-0.5-1.7c-0.3-0.4-0.8-0.5-1.6-0.5c-0.4,0-0.8,0.1-1,0.2s-0.6,0.4-0.9,0.7
				c-0.3,0.2-0.5,0.4-0.7,0.5c-0.1,0.1-0.2,0.2-0.3,0.2h-3.6c-0.2,0-0.4-0.1-0.5-0.2c-0.1-0.1-0.2-0.3-0.2-0.5
				c0-0.6,0.3-1.2,0.8-1.9s1.4-1.3,2.4-1.8c1.1-0.5,2.4-0.7,4.1-0.7c2.6,0,4.5,0.6,5.7,1.7c1.2,1.1,1.9,2.7,1.9,4.6v9.4
				c0,0.2-0.1,0.4-0.2,0.5s-0.3,0.2-0.6,0.2H553c-0.2,0-0.4-0.1-0.5-0.2c-0.2-0.2-0.2-0.3-0.2-0.5v-1.1c-0.5,0.6-1.1,1.2-1.9,1.6
				c-0.8,0.4-1.8,0.6-2.9,0.6C546.4,536.8,545.4,536.6,544.5,536.2z M551.2,532.3c0.6-0.6,0.9-1.5,0.9-2.6v-0.4l-2.6,0.4
				c-1.7,0.3-2.6,1-2.6,1.9c0,0.5,0.2,0.9,0.6,1.1c0.4,0.3,0.9,0.4,1.5,0.4C549.9,533.2,550.7,532.9,551.2,532.3z"/>
			<path class="st6" d="M562.7,530.3v-5.7h-2.4c-0.2,0-0.4-0.1-0.5-0.2c-0.2-0.2-0.2-0.3-0.2-0.5v-2.7c0-0.2,0.1-0.4,0.2-0.6
				c0.2-0.1,0.3-0.2,0.5-0.2h2.4v-5.1c0-0.2,0.1-0.4,0.2-0.6c0.2-0.1,0.3-0.2,0.5-0.2h3.8c0.2,0,0.4,0.1,0.6,0.2s0.2,0.3,0.2,0.6
				v5.1h3.9c0.2,0,0.4,0.1,0.6,0.2c0.2,0.1,0.2,0.3,0.2,0.6v2.7c0,0.2-0.1,0.4-0.2,0.6c-0.2,0.1-0.3,0.2-0.6,0.2h-3.9v5.3
				c0,0.7,0.1,1.3,0.4,1.6s0.7,0.6,1.3,0.6h2.4c0.2,0,0.4,0.1,0.6,0.2c0.1,0.2,0.2,0.3,0.2,0.6v2.9c0,0.2-0.1,0.4-0.2,0.5
				c-0.1,0.2-0.3,0.2-0.6,0.2h-2.9C564.9,536.5,562.7,534.5,562.7,530.3z"/>
			<path class="st6" d="M578.1,536.1c-1.1-0.5-2-1-2.5-1.7c-0.5-0.7-0.8-1.3-0.8-1.8c0-0.2,0.1-0.4,0.2-0.5c0.2-0.1,0.3-0.2,0.5-0.2
				h3.8c0.1,0,0.2,0,0.3,0.1c0.4,0.2,0.5,0.4,0.6,0.4c0.4,0.3,0.8,0.5,1.1,0.7c0.3,0.2,0.7,0.2,1.2,0.2c0.6,0,1-0.1,1.4-0.3
				s0.5-0.5,0.5-0.9c0-0.3-0.1-0.6-0.3-0.8c-0.2-0.2-0.6-0.4-1.1-0.6c-0.5-0.2-1.4-0.4-2.5-0.6c-3.6-0.7-5.4-2.4-5.4-5
				c0-0.8,0.3-1.7,0.8-2.4c0.5-0.8,1.4-1.4,2.4-1.9c1.1-0.5,2.3-0.7,3.8-0.7c1.5,0,2.8,0.2,3.9,0.7s1.9,1,2.5,1.7s0.9,1.2,0.9,1.8
				c0,0.2-0.1,0.4-0.2,0.5c-0.1,0.1-0.3,0.2-0.5,0.2h-3.4c-0.2,0-0.3,0-0.4-0.1c-0.2-0.1-0.5-0.3-0.7-0.5c-0.4-0.2-0.7-0.4-1-0.6
				c-0.3-0.1-0.6-0.2-1.1-0.2c-0.5,0-0.9,0.1-1.2,0.3c-0.3,0.2-0.4,0.5-0.4,0.9c0,0.3,0.1,0.6,0.3,0.8c0.2,0.2,0.5,0.4,1.1,0.6
				c0.5,0.2,1.4,0.4,2.5,0.6c2,0.4,3.5,1,4.4,1.9c0.9,0.9,1.4,1.9,1.4,3.1c0,1.6-0.7,2.8-2.1,3.7s-3.3,1.4-5.8,1.4
				C580.6,536.8,579.2,536.6,578.1,536.1z"/>
		</g>
		<g>
			<path class="st6" d="M603,548.2c-0.3-2.8-2.8-4.9-5.6-4.7c-2.8,0.3-4.9,2.8-4.7,5.6l1.4,15.5c-28.4-23.1-54.8-21.5-72.2-15.7
				c-19.8,6.5-32.3,19.4-32.8,20c-2,2.1-1.9,5.3,0.2,7.3s5.3,1.9,7.3-0.1c1.8-1.8,42.5-43,91.2-3.2l-17.3,1.7
				c-2.8,0.3-4.9,2.8-4.6,5.6c0.3,2.7,2.5,4.7,5.1,4.7c0.2,0,0.3,0,0.5,0l34.5-3.4L603,548.2z"/>
			<path class="st2" d="M597.8,543.5c2.6,0,4.9,2,5.2,4.7l3,33.2l-34.5,3.4c-0.2,0-0.3,0-0.5,0c-2.6,0-4.9-2-5.1-4.7
				c-0.3-2.8,1.8-5.4,4.6-5.6l17.3-1.7c-15.8-12.9-30.7-17.3-43.8-17.3c-27.3,0-46.3,19.2-47.5,20.5c-1,1.1-2.4,1.6-3.7,1.6
				c-1.3,0-2.6-0.5-3.6-1.4c-2.1-2-2.1-5.2-0.2-7.3c0.5-0.5,13-13.4,32.8-20c6.4-2.1,13.9-3.7,22.3-3.7c14.6,0,31.8,4.7,49.9,19.4
				l-1.4-15.5c-0.3-2.8,1.8-5.4,4.7-5.6C597.5,543.5,597.7,543.5,597.8,543.5 M597.8,538.5c-0.3,0-0.6,0-0.9,0
				c-5.6,0.5-9.7,5.5-9.2,11l0.4,4.5c-14-9.2-28.8-13.8-43.9-13.8c-8,0-16,1.3-23.9,3.9c-20.9,6.9-34.3,20.7-34.8,21.3
				c-3.9,4-3.7,10.5,0.3,14.4c1.9,1.8,4.4,2.8,7,2.8c2.7,0,5.4-1.1,7.3-3.1c0.7-0.8,18.5-19,43.9-19c10.1,0,20.1,2.9,29.9,8.6
				l-3.9,0.4c-2.7,0.3-5.1,1.6-6.9,3.7c-1.7,2.1-2.5,4.7-2.3,7.4c0.5,5.2,4.9,9.2,10.1,9.2c0.3,0,0.7,0,1-0.1l34.5-3.4
				c2.7-0.3,4.7-2.7,4.5-5.4l-3-33.2C607.5,542.5,603.1,538.5,597.8,538.5L597.8,538.5z"/>
		</g>
		<g>
			<path class="st6" d="M713.8,534.8v1c0,0.2-0.1,0.4-0.2,0.5s-0.3,0.2-0.6,0.2h-3.7c-0.2,0-0.4-0.1-0.6-0.2
				c-0.2-0.1-0.2-0.3-0.2-0.6v-20.5c0-0.2,0.1-0.4,0.2-0.6c0.2-0.1,0.3-0.2,0.6-0.2h4c0.2,0,0.4,0.1,0.6,0.2s0.2,0.3,0.2,0.6v6.6
				c1.1-1.2,2.6-1.8,4.5-1.8c2,0,3.6,0.6,4.7,1.9s1.8,3.1,1.9,5.3c0,0.3,0,0.6,0,1.1c0,0.5,0,0.8,0,1.1c-0.1,2.3-0.7,4.1-1.8,5.4
				c-1.1,1.3-2.7,1.9-4.7,1.9C716.5,536.8,714.9,536.1,713.8,534.8z M718.8,531.7c0.4-0.5,0.6-1.3,0.7-2.3c0-0.2,0-0.5,0-1
				c0-0.4,0-0.8,0-1c-0.1-1-0.3-1.7-0.7-2.3c-0.4-0.5-1.1-0.8-2-0.8c-0.9,0-1.5,0.3-2,0.8c-0.4,0.5-0.7,1.2-0.7,2c0,0.3,0,0.7,0,1.1
				c0,0.5,0,0.9,0,1.2c0,0.9,0.3,1.6,0.7,2.2c0.4,0.6,1.1,0.9,2,0.9C717.7,532.5,718.4,532.2,718.8,531.7z"/>
			<path class="st6" d="M729.7,534.8c-1.4-1.4-2.2-3.3-2.2-5.9v-1c0.1-2.5,0.8-4.4,2.3-5.8c1.4-1.4,3.4-2.1,5.9-2.1
				c1.8,0,3.3,0.4,4.5,1.1s2.1,1.7,2.8,2.9c0.6,1.2,0.9,2.7,0.9,4.3v0.8c0,0.2-0.1,0.4-0.2,0.6c-0.2,0.2-0.3,0.2-0.6,0.2h-9.8v0.2
				c0,0.9,0.2,1.7,0.7,2.2s1,0.9,1.8,0.9c0.5,0,0.9-0.1,1.2-0.3c0.3-0.2,0.6-0.5,0.9-0.8c0.2-0.2,0.3-0.3,0.4-0.4
				c0.1-0.1,0.3-0.1,0.5-0.1h4.1c0.2,0,0.3,0.1,0.5,0.2c0.1,0.1,0.2,0.3,0.2,0.4c0,0.5-0.3,1.2-0.9,1.9c-0.6,0.7-1.5,1.3-2.7,1.9
				c-1.2,0.5-2.5,0.8-4.1,0.8C733.2,536.8,731.2,536.1,729.7,534.8z M738.1,526.8L738.1,526.8c0-1.1-0.2-1.8-0.7-2.4
				c-0.4-0.5-1-0.8-1.8-0.8s-1.4,0.3-1.8,0.8s-0.6,1.3-0.6,2.3v0.1H738.1z"/>
			<path class="st6" d="M748.5,536.2c-0.9-0.4-1.6-1-2.1-1.8c-0.5-0.7-0.8-1.6-0.8-2.4c0-1.4,0.6-2.5,1.8-3.4
				c1.2-0.9,2.8-1.5,4.8-1.8l3.8-0.6v-0.4c0-0.8-0.2-1.3-0.5-1.7c-0.3-0.4-0.8-0.5-1.6-0.5c-0.4,0-0.8,0.1-1,0.2
				c-0.3,0.1-0.6,0.4-0.9,0.7c-0.3,0.2-0.5,0.4-0.7,0.5c-0.1,0.1-0.2,0.2-0.3,0.2h-3.6c-0.2,0-0.4-0.1-0.5-0.2
				c-0.1-0.1-0.2-0.3-0.2-0.5c0-0.6,0.3-1.2,0.8-1.9c0.5-0.7,1.4-1.3,2.4-1.8c1.1-0.5,2.4-0.7,4.1-0.7c2.6,0,4.5,0.6,5.7,1.7
				c1.2,1.1,1.9,2.7,1.9,4.6v9.4c0,0.2-0.1,0.4-0.2,0.5s-0.3,0.2-0.6,0.2h-3.8c-0.2,0-0.4-0.1-0.5-0.2c-0.2-0.2-0.2-0.3-0.2-0.5
				v-1.1c-0.5,0.6-1.1,1.2-1.9,1.6c-0.8,0.4-1.8,0.6-2.9,0.6C750.4,536.8,749.4,536.6,748.5,536.2z M755.3,532.3
				c0.6-0.6,0.9-1.5,0.9-2.6v-0.4l-2.6,0.4c-1.7,0.3-2.6,1-2.6,1.9c0,0.5,0.2,0.9,0.6,1.1c0.4,0.3,0.9,0.4,1.5,0.4
				C754,533.2,754.7,532.9,755.3,532.3z"/>
			<path class="st6" d="M766.8,530.3v-5.7h-2.4c-0.2,0-0.4-0.1-0.5-0.2c-0.2-0.2-0.2-0.3-0.2-0.5v-2.7c0-0.2,0.1-0.4,0.2-0.6
				c0.2-0.1,0.3-0.2,0.5-0.2h2.4v-5.1c0-0.2,0.1-0.4,0.2-0.6s0.3-0.2,0.5-0.2h3.8c0.2,0,0.4,0.1,0.6,0.2s0.2,0.3,0.2,0.6v5.1h3.9
				c0.2,0,0.4,0.1,0.6,0.2c0.2,0.1,0.2,0.3,0.2,0.6v2.7c0,0.2-0.1,0.4-0.2,0.6s-0.3,0.2-0.6,0.2h-3.9v5.3c0,0.7,0.1,1.3,0.4,1.6
				s0.7,0.6,1.3,0.6h2.4c0.2,0,0.4,0.1,0.6,0.2c0.1,0.2,0.2,0.3,0.2,0.6v2.9c0,0.2-0.1,0.4-0.2,0.5c-0.1,0.2-0.3,0.2-0.6,0.2h-2.9
				C769,536.5,766.8,534.5,766.8,530.3z"/>
			<path class="st6" d="M782.1,536.1c-1.1-0.5-2-1-2.5-1.7c-0.5-0.7-0.8-1.3-0.8-1.8c0-0.2,0.1-0.4,0.2-0.5c0.2-0.1,0.3-0.2,0.5-0.2
				h3.8c0.1,0,0.2,0,0.3,0.1c0.4,0.2,0.5,0.4,0.6,0.4c0.4,0.3,0.8,0.5,1.1,0.7c0.3,0.2,0.7,0.2,1.2,0.2c0.6,0,1-0.1,1.4-0.3
				s0.5-0.5,0.5-0.9c0-0.3-0.1-0.6-0.3-0.8c-0.2-0.2-0.6-0.4-1.1-0.6c-0.5-0.2-1.4-0.4-2.5-0.6c-3.6-0.7-5.4-2.4-5.4-5
				c0-0.8,0.3-1.7,0.8-2.4c0.5-0.8,1.4-1.4,2.4-1.9s2.3-0.7,3.8-0.7c1.5,0,2.8,0.2,3.9,0.7s1.9,1,2.5,1.7s0.9,1.2,0.9,1.8
				c0,0.2-0.1,0.4-0.2,0.5c-0.1,0.1-0.3,0.2-0.5,0.2h-3.4c-0.2,0-0.3,0-0.4-0.1c-0.2-0.1-0.5-0.3-0.7-0.5c-0.4-0.2-0.7-0.4-1-0.6
				c-0.3-0.1-0.6-0.2-1.1-0.2c-0.5,0-0.9,0.1-1.2,0.3c-0.3,0.2-0.4,0.5-0.4,0.9c0,0.3,0.1,0.6,0.3,0.8c0.2,0.2,0.5,0.4,1.1,0.6
				c0.5,0.2,1.4,0.4,2.5,0.6c2,0.4,3.5,1,4.4,1.9c0.9,0.9,1.4,1.9,1.4,3.1c0,1.6-0.7,2.8-2.1,3.7s-3.3,1.4-5.8,1.4
				C784.7,536.8,783.2,536.6,782.1,536.1z"/>
		</g>
		<g>
			<path class="st6" d="M807.1,548.2c-0.3-2.8-2.8-4.9-5.6-4.7c-2.8,0.3-4.9,2.8-4.7,5.6l1.4,15.5c-28.4-23.1-54.8-21.5-72.2-15.7
				c-19.8,6.5-32.3,19.4-32.8,20c-2,2.1-1.9,5.3,0.2,7.3s5.3,1.9,7.3-0.1c1.8-1.8,42.5-43,91.2-3.2l-17.3,1.7
				c-2.8,0.3-4.9,2.8-4.6,5.6c0.3,2.7,2.5,4.7,5.1,4.7c0.2,0,0.3,0,0.5,0l34.5-3.4L807.1,548.2z"/>
			<path class="st2" d="M801.9,543.5c2.6,0,4.9,2,5.2,4.7l3,33.2l-34.5,3.4c-0.2,0-0.3,0-0.5,0c-2.6,0-4.9-2-5.1-4.7
				c-0.3-2.8,1.8-5.4,4.6-5.6l17.3-1.7c-15.8-12.9-30.7-17.3-43.8-17.3c-27.3,0-46.3,19.2-47.5,20.5c-1,1.1-2.4,1.6-3.7,1.6
				c-1.3,0-2.6-0.5-3.6-1.4c-2.1-2-2.1-5.2-0.2-7.3c0.5-0.5,13-13.4,32.8-20c6.4-2.1,13.9-3.7,22.3-3.7c14.6,0,31.8,4.7,49.9,19.4
				l-1.4-15.5c-0.3-2.8,1.8-5.4,4.7-5.6C801.6,543.5,801.7,543.5,801.9,543.5 M801.9,538.5c-0.3,0-0.6,0-0.9,0
				c-5.6,0.5-9.7,5.5-9.2,11l0.4,4.5c-14-9.2-28.8-13.8-43.9-13.8c-8,0-16,1.3-23.9,3.9c-20.9,6.9-34.3,20.7-34.8,21.3
				c-3.9,4-3.7,10.5,0.3,14.4c1.9,1.8,4.4,2.8,7,2.8c2.7,0,5.4-1.1,7.3-3.1c0.7-0.8,18.5-19,43.9-19c10.1,0,20.1,2.9,29.9,8.6
				l-3.9,0.4c-2.7,0.3-5.1,1.6-6.9,3.7c-1.7,2.1-2.5,4.7-2.3,7.4c0.5,5.2,4.9,9.2,10.1,9.2c0.3,0,0.7,0,1-0.1l34.5-3.4
				c2.7-0.3,4.7-2.7,4.5-5.4l-3-33.2C811.6,542.5,807.2,538.5,801.9,538.5L801.9,538.5z"/>
		</g>
		<g>
			<path class="st6" d="M643.4,692.4c-93.1-0.5-133.3-24.8-149.4-38l17.3-1.7c2.8-0.3,4.9-2.8,4.6-5.6c-0.3-2.7-2.5-4.7-5.1-4.7
				c-0.2,0-0.3,0-0.5,0l-34.5,3.4l3,33.2c0.3,2.8,2.8,4.9,5.6,4.7c2.8-0.3,4.9-2.8,4.7-5.6l-1.4-15.5
				c28.4,23.1,93.6,38.8,155.7,38.8c0,0,108.5,0,182.8-51c0,0,3.7-3,0.9-8c-2.8-5-8.2,0-8.2,0S741.8,692.9,643.4,692.4z"/>
			<path class="st2" d="M823.6,640.2c1.2,0,2.4,0.6,3.4,2.2c2.8,5-0.9,8-0.9,8c-74.3,51-182.8,51-182.8,51
				c-62,0-127.2-15.7-155.7-38.8l1.4,15.5c0.3,2.8-1.8,5.4-4.7,5.6c-0.2,0-0.3,0-0.5,0c-2.6,0-4.9-2-5.2-4.7l-3-33.2l34.5-3.4
				c0.2,0,0.3,0,0.5,0c2.6,0,4.9,2,5.1,4.7c0.3,2.8-1.8,5.4-4.6,5.6l-17.3,1.7c16.2,13.2,56.4,37.5,149.4,38c0.5,0,1,0,1.5,0
				c97.7,0,173.9-50,173.9-50S821.1,640.2,823.6,640.2 M823.6,635.2c-3.6,0-6.7,2.2-7.8,3.2c-2.5,1.6-20.9,13.1-49.4,24.5
				c-28.1,11.2-71.9,24.5-121.5,24.5c-0.5,0-1,0-1.5,0c-71.7-0.4-112.6-14.8-135.7-29.3l4.1-0.4c2.7-0.3,5.1-1.6,6.9-3.7
				c1.7-2.1,2.5-4.7,2.3-7.4c-0.5-5.2-4.9-9.2-10.1-9.2c-0.3,0-0.7,0-1,0.1l-34.5,3.4c-2.7,0.3-4.7,2.7-4.5,5.4l3,33.2
				c0.5,5.3,4.8,9.3,10.1,9.3c0.3,0,0.6,0,0.9,0c5.6-0.5,9.7-5.5,9.2-11l-0.4-4.7c32.1,20,91.2,33.5,149.7,33.5
				c1.1,0,28-0.1,64.4-6.4c33.7-5.9,82.1-18.6,121.2-45.4c0.1-0.1,0.2-0.2,0.3-0.2c2.4-2,5.9-7.5,2-14.3
				C829.6,636.9,826.8,635.2,823.6,635.2L823.6,635.2z"/>
		</g>
	</g>
	<g>
		<path class="st0" d="M56.6,664.3c-0.2,0.2-0.4,0.3-0.7,0.3H31.3c-0.3,0-0.5-0.1-0.7-0.3s-0.3-0.4-0.3-0.7v-10.4
			c0-3.3,0.8-6,2.3-7.8c1.5-1.9,3.7-2.8,6.4-2.8c1.8,0,3.3,0.4,4.5,1.2s2.2,2,2.9,3.4l9.3-5.1c0.2-0.1,0.3-0.1,0.4-0.1
			c0.2,0,0.4,0.1,0.6,0.2c0.2,0.2,0.2,0.3,0.2,0.6v5.4c0,0.7-0.3,1.3-1,1.6l-8.2,4.2v3.6H56c0.3,0,0.5,0.1,0.7,0.3s0.3,0.4,0.3,0.7
			v5.2C56.9,663.9,56.8,664.1,56.6,664.3z M42.1,653.2c0-1.1-0.3-1.9-0.8-2.5s-1.3-0.9-2.3-0.9s-1.7,0.3-2.3,0.9
			c-0.6,0.6-0.9,1.4-0.9,2.5v4.2h6.3C42.1,657.4,42.1,653.2,42.1,653.2z"/>
		<path class="st0" d="M54.7,635.3c-1.7,2-4.4,3.1-7.9,3.1H31.3c-0.3,0-0.5-0.1-0.7-0.3s-0.3-0.4-0.3-0.7v-5.2
			c0-0.3,0.1-0.5,0.3-0.7c0.2-0.2,0.4-0.3,0.7-0.3h15.4c1.6,0,2.7-0.4,3.5-1.1c0.8-0.7,1.2-1.8,1.2-3.2s-0.4-2.5-1.2-3.2
			s-2-1.1-3.5-1.1H31.3c-0.3,0-0.5-0.1-0.7-0.3s-0.3-0.4-0.3-0.7v-5.2c0-0.3,0.1-0.5,0.3-0.7c0.2-0.2,0.4-0.3,0.7-0.3h15.5
			c3.5,0,6.1,1,7.9,3s2.6,4.8,2.6,8.4C57.3,630.5,56.4,633.3,54.7,635.3z"/>
		<path class="st0" d="M56.6,610.2c-0.2,0.2-0.4,0.3-0.7,0.3H31.3c-0.3,0-0.5-0.1-0.7-0.3s-0.3-0.4-0.3-0.7v-5.3
			c0-0.3,0.1-0.5,0.3-0.7c0.2-0.2,0.4-0.3,0.7-0.3H51v-11.4c0-0.3,0.1-0.5,0.3-0.7s0.4-0.3,0.7-0.3h4c0.3,0,0.5,0.1,0.7,0.3
			s0.3,0.4,0.3,0.7v17.7C56.9,609.8,56.8,610,56.6,610.2z"/>
		<path class="st0" d="M56.6,587.4c-0.2,0.2-0.4,0.3-0.7,0.3H31.3c-0.3,0-0.5-0.1-0.7-0.3s-0.3-0.4-0.3-0.7v-17.9
			c0-0.3,0.1-0.5,0.3-0.7c0.2-0.2,0.4-0.3,0.7-0.3h3.8c0.3,0,0.5,0.1,0.7,0.3s0.3,0.4,0.3,0.7v12h4.8v-11.2c0-0.3,0.1-0.5,0.3-0.7
			s0.4-0.3,0.7-0.3h3.5c0.3,0,0.5,0.1,0.7,0.3s0.3,0.4,0.3,0.7v11.2h4.9v-12.3c0-0.3,0.1-0.5,0.3-0.7s0.4-0.3,0.7-0.3h3.8
			c0.3,0,0.5,0.1,0.7,0.3s0.3,0.4,0.3,0.7v18.2C56.9,587,56.8,587.2,56.6,587.4z"/>
		<path class="st0" d="M56.2,559.5c-0.7,1.7-1.6,3-2.8,3.9s-2.4,1.4-3.8,1.4c-0.2,0-0.4-0.1-0.6-0.2c-0.2-0.2-0.2-0.4-0.2-0.6v-5.1
			c0-0.3,0.1-0.6,0.2-0.7c0.1-0.2,0.3-0.4,0.5-0.6c0.6-0.3,1.1-0.8,1.5-1.5s0.6-1.6,0.6-2.8c0-1.4-0.2-2.4-0.6-3.2s-1-1.1-1.7-1.1
			c-0.5,0-1,0.2-1.3,0.6c-0.3,0.4-0.6,1-0.9,1.8c-0.3,0.8-0.6,2-0.9,3.6c-0.6,3.1-1.5,5.4-2.8,6.9c-1.2,1.5-3,2.3-5.3,2.3
			c-1.6,0-3-0.4-4.2-1.3c-1.2-0.9-2.2-2.1-2.9-3.7c-0.7-1.6-1-3.5-1-5.6c0-2.2,0.4-4.2,1.2-5.8c0.8-1.6,1.7-2.9,2.9-3.8
			c1.2-0.9,2.3-1.3,3.4-1.4c0.2,0,0.4,0.1,0.6,0.2c0.2,0.2,0.2,0.3,0.2,0.6v5.3c0,0.6-0.2,1-0.7,1.3c-0.5,0.2-1,0.5-1.3,1.2
			c-0.4,0.6-0.6,1.4-0.6,2.4c0,1.1,0.2,1.9,0.6,2.5c0.4,0.6,0.9,0.9,1.7,0.9c0.7,0,1.3-0.4,1.7-1.1c0.4-0.8,0.8-2.2,1.3-4.3
			c0.4-2.4,1-4.3,1.6-5.7s1.5-2.4,2.5-3.1s2.3-1,3.9-1c1.7,0,3.2,0.5,4.5,1.5s2.2,2.4,2.9,4.1s1,3.8,1,6
			C57.3,555.7,56.9,557.8,56.2,559.5z"/>
	</g>
</g>
<g id="cross_1_">
	<path id="cross-path" class="st0" d="M1068.9,522l11.2-11.2c1-1,1-2.6,0-3.5s-2.6-1-3.5,0l-11.2,11.2l-11.2-11.2c-1-1-2.6-1-3.5,0
		c-1,1-1,2.6,0,3.5l11.2,11.2l-11.2,11.2c-1,1-1,2.6,0,3.5c0.5,0.5,1.1,0.7,1.8,0.7s1.3-0.2,1.8-0.7l11.2-11.2l11.2,11.2
		c0.5,0.5,1.1,0.7,1.8,0.7s1.3-0.2,1.8-0.7c1-1,1-2.6,0-3.5L1068.9,522z"/>
</g>
</svg>
